<?xml version="1.0" encoding="UTF-8"?>
<svg id="Capa_2" data-name="Capa 2" xmlns="http://www.w3.org/2000/svg" viewBox="0 0 1200 367.88">
  <defs>
    <style>
      .cls-1 {
        fill: #035b98;
      }
    </style>
  </defs>
  <g id="Capa_40" data-name="Capa 40">
    <g>
      <path class="cls-1" d="m1115.11,0v84.89H0v198.09l84.89,84.89v-84.89h1115.11V84.89L1115.11,0ZM77.27,235.73c-11.28,0-13.99,0-24.18.41l-.68-.82c.54-14.13.82-22.41.82-38.44,0-34.64-.41-41.57-1.22-56.24l.54-.82c9.78.14,12.91.14,24.59-.41l.68.82c-.41,18.75-.68,37.49-.68,56.24,0,19.7.27,25.94.95,38.44l-.82.82Zm82.32-.82l-1.09.82h-59.77l-.68-.54c.41-14.26.68-22.82.68-39.94,0-36.4-.27-41.43-1.09-54.61l.82-.82h59.64l.68.54-.95,15.76-.68.82c-16.44-.41-19.56-.41-34.91-.41v21.6l32.87-.54.68.82-.82,15.35-.95.82h-31.79l.27,23.77c17.39,0,21.19-.14,37.22-.95l.82.95-.95,16.57Zm76.34,0l-1.09.82h-59.77l-.68-.54c.41-14.26.68-22.82.68-39.94,0-36.4-.27-41.43-1.09-54.61l.82-.82h59.63l.68.54-.95,15.76-.68.82c-16.44-.41-19.56-.41-34.91-.41v21.6l32.87-.54.68.82-.82,15.35-.95.82h-31.79l.27,23.77c17.39,0,21.19-.14,37.22-.95l.82.95-.95,16.57Zm76.34,0l-1.09.82h-59.77l-.68-.54c.41-14.26.68-22.82.68-39.94,0-36.4-.27-41.43-1.09-54.61l.82-.82h59.63l.68.54-.95,15.76-.68.82c-16.44-.41-19.56-.41-34.91-.41v21.6l32.87-.54.68.82-.82,15.35-.95.82h-31.79l.27,23.77c17.39,0,21.19-.14,37.22-.95l.82.95-.95,16.57Zm879.25,39.57H362.08V93.38h829.43v181.11Z"/>
      <path class="cls-1" d="m415.12,235.19l.82.95c7.06-.41,7.47-.41,14.94-.41l.82-.95c-.82-16.57-.82-20.92-.95-35.59,1.9,0,3.67.14,6.11.14,16.17,0,31.38-2.85,39.26-16.03,2.72-4.48,4.08-9.78,4.08-15.21,0-9.37-3.94-21.87-19.02-26.76-6.52-2.04-13.45-2.04-22.41-2.04l-8.96.27c-2.45,0-12.63.27-14.81.27l-.68.95c1.22,20.65,1.22,42.25,1.22,63.3,0,15.9-.14,22.55-.41,31.11Zm15.49-84.36c3.67-.27,5.43-.54,12.23-.54,5.7,0,16.03.14,20.51,9.51,1.22,2.72,1.63,5.71,1.63,8.42,0,3.39-.68,6.93-2.31,9.78-4.76,8.42-14.54,9.37-18.2,9.64-3.67.41-9.24.41-13.86.54,0-6.11-.14-12.23-.14-18.34s.14-12.77.14-19.02Z"/>
      <path class="cls-1" d="m523.12,237.36c12.09,0,19.43-3.94,21.73-5.16l.82-.95c.27-5.3.41-6.66,1.09-12.09l-1.09-.68c-1.77,1.5-4.75,3.94-9.78,5.98-3.8,1.36-7.88,2.04-11.82,2.04-4.21,0-11.95-.68-17.52-7.33-4.62-5.57-5.03-12.23-5.16-16.98,22.28-.14,25.95-.14,47.14,0l.95-.82c.14-5.98.41-19.42-7.34-28.66-4.07-4.89-11.55-9.37-22.28-9.37-17.8,0-33.01,12.36-33.01,37.63,0,23.64,13.99,36.41,36.27,36.41Zm-3.8-64.25c6.11,0,12.09,3.12,14.81,10.6,1.09,3.13,1.22,6.11,1.36,8.01-12.5.14-17.66.27-34.1.14,1.36-13.58,10.32-18.74,17.93-18.74Z"/>
      <path class="cls-1" d="m562.45,235.33l.68.82c6.52-.27,8.01-.41,14.4-.41l.68-.95c-.54-7.61-.95-15.62-.95-30.97,0-14.13,0-20.1,5.57-24.04,1.22-.82,3.12-1.77,5.7-1.77,2.31,0,4.08.68,5.44,1.22l.95-.68c.95-5.98,1.22-7.33,2.58-13.85l-.54-.82c-1.09-.27-2.04-.41-3.8-.41-11.55,0-14.94,8.69-16.57,13.04l.68-11.55-.82-.82c-5.7,1.09-8.96,1.77-14.13,2.72l-.82.95c.82,7.88,1.22,13.45,1.22,35.18,0,12.63-.14,22.01-.27,32.33Z"/>
      <path class="cls-1" d="m607.24,203.54c.14,10.6.14,22.14,8.83,29.2,4.35,3.4,10.19,4.62,15.48,4.62,11.14,0,18.34-5.57,21.33-7.74l-.14,5.7.82.82c6.25-.27,7.33-.41,13.86-.54l.54-.82c-.14-1.9-.27-3.81-.27-5.71-.27-5.84-.68-15.89-.68-32.6,0-11,.14-20.65.41-30.97l-.82-.95c-6.25.41-7.74.41-13.99.54l-.82.95c.82,8.83.95,12.63.95,31.51,0,7.88,0,14.13-.14,21.46-3.26,2.58-8.97,7.06-16.98,7.06-13.72,0-13.99-12.23-14.13-17.93-.14-6.52,0-9.24,0-12.91l.54-29.75-.82-.95c-6.39.54-7.61.54-13.99.68l-.68.95c.41,7.34.41,9.51.68,28.93v8.42Z"/>
      <path class="cls-1" d="m748.91,225.82c-12.63,0-20.51-5.7-23.91-8.01l-1.36.54c-.41,5.16-.54,7.74-1.09,12.5l.54.95c3.26,1.63,12.5,5.98,26.9,5.98,23.64,0,34.91-13.72,34.91-28.93,0-17.39-13.18-23.09-23.09-27.44l-6.79-2.99c-8.15-3.53-8.69-3.8-10.46-4.89-2.85-1.77-6.93-4.62-6.93-10.73,0-8.01,7.06-13.31,18.34-13.31,10.19,0,16.57,3.26,22.41,6.25l1.09-.54c.41-4.89.54-6.79,1.09-11.95l-.68-1.09c-7.2-2.31-13.72-4.35-24.45-4.35s-22.28,2.99-28.53,11.95c-2.85,4.08-4.21,9.24-4.21,14.26,0,16.57,12.9,22.41,22.55,26.9l6.79,2.99c8.83,3.4,16.71,7.06,16.71,16.57,0,8.15-5.84,15.35-19.83,15.35Z"/>
      <path class="cls-1" d="m831.62,237.36c12.09,0,19.43-3.94,21.73-5.16l.82-.95c.27-5.3.41-6.66,1.09-12.09l-1.09-.68c-1.77,1.5-4.75,3.94-9.78,5.98-3.8,1.36-7.88,2.04-11.82,2.04-4.21,0-11.95-.68-17.52-7.33-4.62-5.57-5.03-12.23-5.16-16.98,22.28-.14,25.95-.14,47.14,0l.95-.82c.14-5.98.41-19.42-7.34-28.66-4.07-4.89-11.55-9.37-22.28-9.37-17.8,0-33.01,12.36-33.01,37.63,0,23.64,13.99,36.41,36.27,36.41Zm-3.8-64.25c6.11,0,12.09,3.12,14.81,10.6,1.09,3.13,1.22,6.11,1.36,8.01-12.5.14-17.66.27-34.1.14,1.36-13.58,10.32-18.74,17.93-18.74Z"/>
      <path class="cls-1" d="m901.76,237.23c9.51,0,14.81-2.72,18.75-4.62l.95-.95c.41-5.57.54-6.25,1.09-12.09l-1.09-.54c-2.58,2.04-8.29,6.79-17.52,6.79-10.6,0-21.06-6.65-21.06-25.13,0-17.39,9.92-26.08,21.19-26.08,5.43,0,10.6,2.04,15.08,5.3l1.09-.54c.27-4.07.41-5.84.95-10.73l-.54-.95c-3.53-1.49-9.78-4.35-18.61-4.35-21.06,0-34.1,16.3-34.1,37.9s13.31,36,33.83,36Z"/>
      <path class="cls-1" d="m937.95,176.23l-.27,29.89c0,16.03,0,19.29,2.45,23.23,4.21,7.07,12.77,7.07,16.03,7.07,5.03,0,7.34-.54,10.19-1.22l.68-.82c.14-3.94.14-4.89.54-9.37l-.95-.82c-1.49.54-3.67,1.22-6.52,1.22-6.79,0-8.01-3.13-8.01-13.04,0-1.9,0-9.64-.14-11.28l.27-25.27c7.2,0,8.01.14,14.81.27l.68-.82c0-4.62.14-6.11.41-9.64l-.68-.82c-7.74.27-9.37.27-15.08.41,0-9.92.14-11.68.54-20.65l-.95-.68c-6.25,1.9-7.74,2.31-13.85,3.8l-.68.95.41,7.74c0,2.85,0,5.84.14,8.69-4.48.14-6.25,0-9.24,0l-.82.81c0,4.35,0,5.43-.27,9.78l.54.82c4.89-.14,5.03-.27,9.78-.27Z"/>
      <path class="cls-1" d="m977.97,235.19l.68.95c6.65-.41,7.74-.41,14.81-.54l.68-.82c-.54-9.24-.82-12.63-.82-37.9,0-17.52.41-24.86.82-31.92l-1.36-.82c-6.79,1.5-8.83,1.77-14.67,2.72l-.68.95c.95,8.01,1.36,12.9,1.36,38.85,0,15.08-.41,21.33-.82,28.53Z"/>
      <path class="cls-1" d="m977.7,145.53l.82.82c6.65-.68,8.15-.82,15.08-1.09l.82-.95c-.14-5.98-.14-7.34,0-12.91l-.82-.82c-6.79.68-8.01.82-15.08,1.36l-.95.82c.14,2.72.27,4.89.27,7.34,0,1.77,0,3.67-.14,5.43Z"/>
      <path class="cls-1" d="m1040.41,237.23c9.51,0,17.52-2.31,23.5-8.28,4.48-4.48,7.33-9.78,8.83-16.44.95-4.08,1.22-8.56,1.22-13.18-.27-9.51-2.04-19.02-8.28-26.22-5.98-6.79-15.08-9.78-24.32-9.78-13.59,0-21.46,5.57-25.27,9.51-9.1,9.1-9.37,22.41-9.37,27.58,0,4.48.14,18.34,9.37,27.71,4.35,4.48,12.09,9.1,24.32,9.1Zm-14.67-55.69c4.75-7.61,12.36-7.88,14.94-7.88,7.61,0,11.95,3.53,14.54,7.74,3.4,5.98,3.94,15.08,3.94,18.48.14,2.85,0,11.95-3.12,18.06-3.94,7.47-10.46,9.1-15.49,9.1-2.72,0-5.57-.54-8.01-1.77-10.73-5.44-10.87-19.15-10.87-24.59,0-5.7.41-13.58,4.08-19.15Z"/>
      <path class="cls-1" d="m1087.31,235.19l.68.95c6.52-.41,7.61-.41,14.26-.54l.82-.82c-.95-15.9-1.22-28.26-1.09-51.89,3.67-2.85,9.92-7.61,18.06-7.61,1.9,0,9.64,0,12.23,10.32.68,2.85.82,4.21.82,25.13,0,6.66,0,13.31-.14,19.97,0,1.5-.14,2.99-.14,4.48l.95.95c6.25-.41,7.06-.41,13.59-.54l.82-.82c-.41-5.16-.54-11.28-.95-27.17v-15.89c-.14-8.42-.27-12.5-2.04-16.57-1.5-3.67-4.35-6.79-7.88-8.83-3.67-2.04-7.88-2.58-11.28-2.58-11.95,0-20.38,5.98-23.91,8.42l.14-7.06-.95-.95c-6.38,1.22-7.61,1.5-14.4,2.72l-.82.95c.68,9.1,1.63,20.65,1.63,42.38,0,10.05-.27,17.39-.41,25Z"/>
    </g>
  </g>
</svg>