<svg id="Capa_1" data-name="Capa 1" xmlns="http://www.w3.org/2000/svg" viewBox="0 0 1337.33 1337.2"><defs><style>.cls-1{fill:#060364;}.cls-2{fill:#080566;}</style></defs><path class="cls-1" d="M1451.44,319.8c0,17,.59,34-.11,50.93-2.34,57.16-45.61,103.11-102.49,109.42-18.39,2.05-36.85,1-55.27,1-20.61-.06-41.24,1.08-61.82-1a114.42,114.42,0,0,1-102.6-113.76c0-31.06-.45-62.12.1-93.17.87-48.86,24.33-83.48,68.06-104.63a102.21,102.21,0,0,1,45-10c32.52,0,65-.33,97.54.1,45.31.59,86.12,29.43,103.29,71.44,6.48,15.86,8.76,32.14,8.76,49V319.8ZM1290.72,204.88v-.33c-6.79,0-13.59-.08-20.38,0-13.32.2-26.8-1.37-39.92,1.35-33.26,6.91-55.11,35-55.28,70.53q-.2,42.93,0,85.87c0,9.47,1.09,18.87,4.66,27.76,9.57,23.9,27,40.22,52.3,43.11,36.84,4.22,74.08,2.75,111.13.75,30.51-1.65,61.26-29.4,61.67-64.22.39-33.7.78-67.44-.18-101.12-1-33.88-30-62.31-63.82-63.6C1324.21,204.36,1307.45,204.88,1290.72,204.88Z" transform="translate(-114.57 -158.13)"/><path class="cls-1" d="M275.93,158.63c18.19,0,36.39-.48,54.56.09,53.08,1.69,103,49.78,106,102.8a1043.3,1043.3,0,0,1,0,116.37c-2.44,45-41.2,89.5-85.29,99.54a137.39,137.39,0,0,1-31.7,3.48c-29.84-.22-59.69-.07-89.53-.07-47.58,0-88.5-27.59-106.66-71.79A108.53,108.53,0,0,1,115,367.29c0-33.23-.37-66.48.22-99.71,1-56.95,51.36-107.41,108.34-108.94,17.45-.46,34.92-.07,52.39-.07ZM161.18,319.39h.33c0,17.95-.52,35.91.12,53.83,1.05,29.07,29.23,58.63,58.35,60.45a891.26,891.26,0,0,0,112.64,0c28.16-1.81,55.91-30.75,57.67-58.73,2.11-33.68,1.35-67.42.67-101.09C390.15,234,362.4,206.06,323.13,205c-31.74-.87-63.54-.17-95.31-.1-37.77.07-66.77,33.73-66.65,67.22C161.23,287.86,161.18,303.63,161.18,319.39Z" transform="translate(-114.57 -158.13)"/><path class="cls-1" d="M276.22,1173c17.21,0,34.43-.44,51.63.08,56.69,1.73,108.71,47.74,109.83,116.05.49,29.82.39,59.66,0,89.49-.63,51-30.15,92.7-77.81,110.15a104.1,104.1,0,0,1-36.34,6.21c-33.23-.09-66.47.44-99.68-.28-58-1.26-108.06-52.06-108.72-109.86-.38-33.95-.45-67.92,0-101.86.75-56.8,49.15-106.62,105.8-109.9C239.38,1172,257.8,1172.87,276.22,1173Zm-.82,275.88v-.46c18.18,0,36.39.57,54.54-.13,29.86-1.16,59-30,60.33-59.89q2.53-54.87,0-109.77c-1.29-28.18-30.1-57.14-58.17-58.92-34.15-2.17-68.38-1.49-102.53-.68-39,.92-66.23,27.17-68.17,66.15-1.59,32.16-.84,64.48-.29,96.72.65,37.87,32.5,68.66,72.83,67.06C247.73,1448.45,261.57,1448.91,275.4,1448.91Z" transform="translate(-114.57 -158.13)"/><path class="cls-1" d="M513.25,851.28c10,3.07,16.32,11.22,16.48,21.27.19,11-6.64,19.23-19.56,23.4,9.58,2.41,16.05,7.84,19.08,18.29,6.35-14.33,16.15-21.64,31.51-16.74,9.61,3.06,15.46,12.6,14.91,22.61a23.28,23.28,0,0,1-17,21.2c-11.37,3.05-19.54-1.58-29.44-16.78-3.74,10.59-10.7,17.22-22.3,17.32-11.82.1-19.1-6.41-23.16-18.18-4.8,11.86-12.28,19-25,18.16-11-.72-17.3-7.6-21.25-18-4.38,11-11.22,18.16-23.24,18.07-11.69-.08-18.57-6.89-23-18.18-4.46,12.09-12.09,18.79-24.45,18.12-11-.6-17.6-7.05-21.35-18.13-4.5,10.79-11.18,18.21-23.16,18.2-11.75,0-18.7-6.64-23.14-18.14-3.5,9.4-9.2,15.62-18.37,18l-9.62-.09c-9-2.5-15-8.33-18.11-18.53-4.37,12.26-11.57,18.88-23.46,18.73-11.56-.15-18.51-6.76-22.26-17.37C197.6,939.91,188.9,944.63,177.2,941a23.08,23.08,0,0,1,0-44.16c12.1-3.49,20.68,1.24,30.11,16.73,3.75-11,11.13-17.42,22.91-17.57,10.36-.13,17.74,5.87,22.76,18.59,3-9.59,8.91-15.51,18-18.48-14.28-7.16-19.57-15.5-17.67-27.28a23.41,23.41,0,0,1,18.21-18.61c11.71-2.2,19.83,2.8,27.87,17.42,3-9.13,8.9-15,18-17.55l9.11-.23Q341,854,345.18,868.46q-.12,4.57-.22,9.15c-2.7,9.58-8.94,15.61-19.66,18.42,11,2.23,16.58,9.07,20.28,18.76,2.62-10.42,9-15.84,18.37-18.79-9-3.46-16.21-7.92-17.63-17.93,0-3.31-.07-6.61-.11-9.92,1.41-10.32,8.53-15.14,17.51-18.16h9.14c5.39,1.71,10.36,4.14,13.73,8.88,4.43,6.25,6.11,13,3.74,20.6-2.83,9-9.3,14-18.68,16.52,10.15,2.37,16.33,8.16,19.42,18.41,4.7-11.73,12.14-19,24.76-18.3,11.27.64,17.9,7.49,21.65,18.66,3.62-11.24,10.33-18,21.57-18.66,12.62-.73,20.07,6.56,24.86,18.52,2.67-10.32,9-15.69,18.1-18.55-9.17-4.09-12.64-6.81-15.51-11.93-7.64-13.58,0-30.52,15.53-34.16ZM318,895.89c-9.85-3-15.81-8.88-18.76-18.8-3.38,10.21-9.39,16.54-20.34,18.85,11,2.22,16.9,8.65,20.4,18.83C302.12,904.7,308.23,899,318,895.89Z" transform="translate(-114.57 -158.13)"/><path class="cls-1" d="M944.86,1190.85c4.76-12.35,11.79-18.07,22.44-18.27,10.37-.19,17.67,5.34,23.41,18.12,4.38-11.74,12.06-18.83,24.8-17.93,11.24.79,17.8,7.64,21,18.08.08,3,.15,6.08.23,9.12-2.65,9.39-8.73,15.63-19.47,19,11.11,2.49,16.25,9.16,19.63,18.18,3.48-9.31,8.26-16.08,18.08-17.46l10.69.21c10.57,2.88,17.31,11.38,17.31,21.84s-6.74,19-17.31,21.84l-10.69.22c-9.82-1.38-14.6-8.15-18.15-17.67-3.12,9.42-8.7,15.69-19.36,18.65,10.9,3.18,16.58,9.53,19.27,18.68-.08,3-.15,6.08-.23,9.12-2.7,9.6-8.94,15.63-18.88,18.22,14,5.08,20.17,13.66,18.94,25.93a23.13,23.13,0,0,1-18.45,19.89c-11.81,2.13-20.9-3.51-27.47-17.68-3.4,9.19-9.11,15.41-18.28,17.79l-9.11.23q-14.43-4.2-18.63-18.62l.23-9.12c2.43-9.17,8.54-15,18.27-18.42-10-3.29-15.78-9.21-18.28-18.22-.07-3-.15-6.08-.22-9.11,2.65-9.4,8.74-15.63,19-18.79-10.46-3.67-11.07-4.25-19.42-17.51-3.19,8.47-7.95,15.25-17.77,16.63l-10.7-.22q-13.1-2.9-16-16v-11.65q2.91-13.11,16-16l10.69-.21c9.82,1.38,14.6,8.15,18.15,17.67,3.12-9.42,8.7-15.7,19.36-18.65-10.9-3.18-16.58-9.53-19.27-18.68C944.71,1196.94,944.78,1193.89,944.86,1190.85Zm45.66,101.54c-3.22,10-9.25,16.07-19.84,18.41,10.61,2.47,16.79,8.57,19.83,18.44,2.2-4.35,3.67-8.42,6.79-11.59s7.28-4.69,11.48-6.87C997.7,1305.89,995.7,1303.88,990.52,1292.39Zm-19.11-27.81c10,3,16.06,8.87,19.39,19.15,3-10.42,9.22-15.75,18.7-19.21-10.32-2.8-15.69-9.16-19-18.64C987.59,1255.93,981.81,1261.82,971.41,1264.58Zm19.36-26.6c2.8-10.35,8.67-16.1,19.26-19.39-10.64-2.8-15.95-9.19-19.58-18.54-2.84,10-9.13,15.43-18.74,18.84C982.24,1221.82,987.6,1227.87,990.77,1238Z" transform="translate(-114.57 -158.13)"/><path class="cls-1" d="M742,1126.79c12.71,4.89,18.27,12.07,18.06,23.32-.21,10.63-6.36,18-19.26,22.54,6.8,1.66,11.92,4.91,15.54,10.24a22.66,22.66,0,0,1,3.36,17.39c-1.87,10.19-11.18,17.91-21.64,18.24-11,.35-20.76-6.83-23.24-17.12-3-12.46,2.56-21.86,17.47-29.06-9.22-2.83-15.21-8.71-18.16-18.59-3.8,11.08-10.41,18-21.65,18.61-12.63.72-20.13-6.54-24.79-18.34-3.08,10.3-9.28,16.09-19.5,18.46,6.51,1.68,11.71,4.41,15.29,9.44a22.54,22.54,0,0,1,4.38,16.47,23,23,0,0,1-21.53,20.12c-11.73.54-20.48-6-23.32-17.41l-.07-10.67c1.4-10,8.63-14.5,17.64-18-9.5-2.85-15.68-8.54-18.57-18.8-3.52,10.13-9.37,16.42-19.92,18.83,10.56,2.75,16.8,8.79,19.49,18.37l-.09,9.63c-3.35,10.78-10.19,17.54-21.84,18-12.07.46-19.28-6.3-23.85-18.11-3.48,9.43-9.19,15.64-18.36,18l-9.62-.09c-10.46-3.22-17.23-9.81-18-21.1-.81-12.62,6.18-20.19,17.76-24.47-14.24-7.12-19.53-15.45-17.65-27.23a23.29,23.29,0,0,1,18.86-18.74c11.73-1.79,19.69,3.31,27.08,17.51,3.91-10.15,10.33-17.17,21.72-17.66,12.35-.52,19.66,6.45,24.32,18.16,4.41-12.18,12.11-18.81,24.5-18.1,11,.62,17.56,7.11,21.24,18.1,4.53-10.74,11.17-18.22,23.22-18.18,11.73,0,18.67,6.66,23.1,18.17,3.48-9.44,9.19-15.65,18.36-18Zm-166.12,65.35c2.76-11.13,9.24-16.33,18.69-19.81-10.18-2.75-15.64-9-19-18.77-3,10.65-9.33,16.46-19.75,19C566.46,1175,572.5,1181,575.88,1192.14Z" transform="translate(-114.57 -158.13)"/><path class="cls-1" d="M944.94,868c3.21-10.44,9.79-17.21,21-18,12.65-.82,20.23,6.18,24.65,18.09,4.59-11.8,12-19,24.74-18.09,11.26.76,17.84,7.51,21.05,18,0,3.21,0,6.42.08,9.62-4.76,12.37-11.86,18.33-22.51,18.22-11.93-.11-19.26-6.69-23.25-18.49-3.49,9.88-9.27,16.45-20.16,18.44,11.8,3.18,19,9.73,19.86,21.3,1,12.65-6,20.31-18.12,25.06,11.85,4.16,18.35,11.66,18.26,23.64-.08,10.3-6,17.5-17.71,21.89,3.41,2.86,7.81,3.73,10.77,6.91a31.84,31.84,0,0,1,6.88,12c4.85-12.21,12.53-19.41,25.49-18.21,10.92,1,17.3,7.72,20.41,17.91l.09,9.62c-2.74,9.57-8.91,15.67-18.85,18.17,13,4.9,18.89,12.07,19,22.83.12,11.19-5.34,18.15-18.1,23.09l-9.58.06c-10.44-3.22-17.29-9.77-18.08-21-.9-12.75,6.22-20.39,18.51-25-10.13-2.76-15.56-9-18.8-18.35-4.07,11.81-11.37,18.39-23.31,18.46-10.65.07-17.68-5.83-22.47-18.21l.09-9.62c2.39-9.11,8.49-14.81,18.18-18.22-12.19-4.38-18.78-11.84-18.35-24,.39-11.26,7-18,18.08-21.84-11.77-4.86-19.16-12.45-18-25.43.91-10.58,7.36-16.94,18.25-20.79-9.62-3.54-15.82-9.26-18.2-18.43C944.89,874.4,944.91,871.19,944.94,868Z" transform="translate(-114.57 -158.13)"/><path class="cls-1" d="M621.5,785.54c-3.93,10.25-4.08,10.41-17.18,18.59,10.88,3.9,17.52,11.07,17.38,23-.14,11.59-6.76,18.53-17.35,22.28,15.48,10,20.09,18.46,16.52,30.11a23.06,23.06,0,0,1-44.32-.57c-3.08-12.08,1.78-20.64,17-29.5-9.11-2.79-14.85-8.72-17.65-18.4-4.36,12.37-12.15,19.35-24.94,18.75-9.71-.46-16.88-6.76-19.82-16.34q-.66-5.61-1.3-11.21c1.72-5.39,4.21-10.28,8.89-13.77,13.31-9.92,28.93-4.33,37.24,13.66,2.76-9.11,8.35-15.22,18.36-18.14-11.43-4.5-18.56-11.54-18.43-23.51.13-11.8,7.08-18.84,18.72-23-10.15-2.77-15.67-9-18.87-18.42-4.17,12.08-11.71,18.88-24,18.41-11.61-.45-18.47-7.35-21.79-18.13,0-3.21.05-6.41.08-9.62,3.35-10.77,10.18-17.54,21.84-18,12.07-.47,19.28,6.29,23.86,18.1,3.48-9.43,9.19-15.63,18.36-18l9.62.08c12.69,4.88,18.19,11.91,18.06,23.1-.13,10.73-6,17.88-19,22.8,9.92,2.5,16.1,8.59,18.82,18.16C621.55,779.13,621.53,782.34,621.5,785.54Z" transform="translate(-114.57 -158.13)"/><path class="cls-1" d="M1008.44,1449.23c-14.06-7.11-19.11-14.86-17.35-26.66a23,23,0,0,1,18.38-19.15c11.59-2,19.67,2.95,27.58,17.36,4.39-11.76,12.24-18.51,24.91-17.48,10.61.86,17,7.25,20.6,17.83,3.16-6.11,6-11.91,12.08-15.09A23.09,23.09,0,0,1,1129,1426.8c-.34,10.74-6.76,18.32-19.45,22.32,6.23,1.85,11.4,4.38,14.94,9.35a22.83,22.83,0,0,1,4.28,16.46c-1.2,10-8.82,18.24-18.41,20-11.61,2.08-20-3.08-27.63-17.38-4.44,11.7-12.24,18.51-24.87,17.52-10.61-.83-17.07-7.14-20.71-17.93-6,13.62-15.28,21-30.2,17-9.27-2.5-15.39-10.71-16.1-20.3C990,1462.94,995.45,1455.35,1008.44,1449.23Zm8.7.11c10.78,2.31,16.26,8.94,19.9,18.64,2.71-10.24,9-15.8,18.77-18.87-9.88-2.88-16-8.63-18.66-18C1030.47,1443.45,1028.26,1445.52,1017.14,1449.34Zm65.55-19.45c-2.93,11.14-9.47,16.71-19.66,19.37,10.51,2.28,16.56,8.35,19.92,19.3,2.72-10.61,9.11-16,18.36-19.57C1091.6,1445.93,1086,1440,1082.69,1429.89Z" transform="translate(-114.57 -158.13)"/><path class="cls-1" d="M1036.51,186.05c-4.76,12.36-11.79,18.28-22.44,18.22-11.92-.07-19.23-6.62-23.3-18.39-4.2,11.5-11.44,18.53-23.48,18.36-11.52-.17-18.64-6.87-22.76-18.64-3.4,10.54-9.61,16.5-19.45,18.65,14,4.72,21.16,14.51,19.4,26.12-1.7,11.18-10.69,19.49-21.61,20-11.68.51-20.42-6-23.24-17.41,0-3.56,0-7.12-.07-10.68,1.4-10,8.63-14.49,17.81-18-9.79-2.65-15.78-8.54-18.84-19.06-3.26,10.64-9.36,16.65-19.74,19.17,10.48,2.74,16.72,8.78,19.41,18.36l-.09,9.63c-3,9.92-9.18,16.48-19.7,17.87a22.91,22.91,0,0,1-25.16-16.37c-3-11.17,2-22.1,12.59-27.29,1.44-.71,2.93-1.31,4.65-2.08-13.61-6.33-19.08-14.25-17.89-25.51A23.17,23.17,0,0,1,870,158.84c11.39-2.71,19.76,2.16,28.85,17,3.92-10.87,11.08-17.54,23-17.39,11.57.15,18.6,6.67,22.54,18.22,4.79-11.77,12.2-19,24.92-18.2,11,.71,17.38,7.5,21.33,18.06,4.76-12,12.44-19.18,25.39-18,10.93,1,17.31,7.72,20.42,17.91C1036.46,179.64,1036.48,182.85,1036.51,186.05Z" transform="translate(-114.57 -158.13)"/><path class="cls-1" d="M1066.49,574.66c10,3.07,16.31,11.22,16.48,21.27.19,11-6.64,19.23-19.21,23.28,10.86,3.86,14.12,6.87,18.94,17.48,8.66-14.83,17.2-19.67,29.27-16.6a23.05,23.05,0,0,1,.58,44.32c-11.66,3.57-20.06-1-30.11-16.51-3.75,10.59-10.7,17.2-22.29,17.34-11.88.14-19-6.52-23.21-18.1-4.77,11.75-12.23,18.9-24.93,18.07-11-.72-17.31-7.58-21.27-18-4.75,11.95-12.44,19.15-25.4,17.94-10.91-1-17.3-7.72-20.4-17.91l-.09-9.61c3.22-10.47,9.8-17.3,21.07-18.1,12.72-.89,20.33,6.26,24.9,18.21,3.76-11,10.35-17.54,21.31-18.23,12.65-.8,20.16,6.39,24.71,17.83,4.62-10.76,7-13.08,18.41-18.19-6.42-2.06-11.72-5.25-15.13-10.93-8.36-14-.41-31.26,15.15-34.85Z" transform="translate(-114.57 -158.13)"/><path class="cls-1" d="M742,296.94c9.92,3,16.47,9.18,17.87,19.7a22.92,22.92,0,0,1-16.37,25.16c-11.16,3-22.1-2-27.29-12.57-.71-1.44-1.31-2.94-2.07-4.66-5.52,11.8-8.49,14.58-19.52,18.08,6.44,1.91,11.8,4.63,15.35,10A23,23,0,0,1,713.57,370a22.71,22.71,0,0,1-21.91,18.69,23,23,0,0,1-23.08-17.4c-3-11.94,2.7-21.51,17.25-28.68-4.05-2-8-3.59-11.16-6.68s-4.48-7.33-7-11.31c-3.73,11.26-10.92,17.56-22.41,18-10.42.4-18.05-5.56-23-17.4-9.53,15.39-17.91,20-30,16.57a23.13,23.13,0,0,1,.56-44.44c11.46-3.14,20.07,1.71,29.51,16.78,3.9-10.89,11.09-17.52,23-17.37,11.55.15,18.51,6.76,22.61,18.34,3.43-9.57,9.1-15.76,18.25-18.14l9-.48c9.18,2.73,15.65,8.46,19,18.92,3.36-10.24,9.27-16,18.29-18.53ZM667.5,322.19c.88-2.24,1.07-3.73,0-5.24C666.42,318.47,666.55,320,667.5,322.19Z" transform="translate(-114.57 -158.13)"/><path class="cls-1" d="M1220.05,1339.41c-2.77,11.14-11.22,17.67-22.56,17.43-11.09-.23-20.12-8.12-22.18-19.36s4.38-20.7,18.19-26.72c-9-3-15.39-8.33-18-18.46-4.94,11.86-12.45,19.38-25.48,18.32-11-.89-17.34-7.65-21-18.47-3.36,10.07-9.36,16.41-19.58,18.57,14.31,4.83,20.87,14,19.19,26.41a22.71,22.71,0,0,1-21,19.68c-11.63.65-21.75-6.75-24.23-17.73-2.69-11.87,3.13-21.6,17.57-28.26-9.23-3.4-15.43-9.12-17.81-18.28q0-4.8,0-9.58c3.23-10.43,9.78-17.23,21.06-18,12.71-.88,20.16,6.29,24.78,18.11,4.16-11.36,11.22-18.2,23.26-18.19s18.47,7.51,23.06,18.08c5-13,13-18.66,24.32-18.07,10.14.52,17.78,7.06,20.35,17.4.08,3.31.17,6.61.25,9.92-1.45,10.82-8.86,15.75-18.37,18.63,9.16,2.82,16.54,7.45,18.2,17.9C1220.1,1332.29,1220.08,1335.85,1220.05,1339.41Z" transform="translate(-114.57 -158.13)"/><path class="cls-1" d="M1312,1248.34c-3,9.75-10.63,15.89-20.47,16.46-10.52.62-18.29-5.2-24.28-18.29-3.28,8.54-7.76,15.74-17.74,17.15l-10.7-.06c-9.82-2.43-16.3-9.49-17.33-18.9a23.54,23.54,0,0,1,3.71-15.91c3.24-5,8.13-7.63,14.32-10.06-11.67-4.67-18.63-12-18.1-24.31.49-11.38,7.5-17.81,18.05-21.86-11.7-4.58-18.87-12-18-24.73.78-11.28,7.57-17.83,18-21.07l9.57,0c9.16,2.43,15,8.55,18.41,18.3,3.29-10,9.21-15.8,18.22-18.3l9.11-.23q14.43,4.18,18.63,18.62-.12,4.56-.22,9.12c-3.22,10.43-9.76,17.29-21,18.08-12.74.89-20.41-6.2-25-18.31-3.24,10.13-9.27,16.16-19.07,18.33,12.28,4.63,17.84,10.55,18.88,20.43,1.41,13.36-5.93,21.15-18.21,26.21,10.1,2.78,15.54,9.06,18.52,18.5,2.38-7.08,5.75-12.5,11.81-15.89,13.59-7.59,30.5,0,34.14,15.56Z" transform="translate(-114.57 -158.13)"/><path class="cls-1" d="M1267.33,739.79c-6.73,13.75-14.46,19-26,17.51a23.12,23.12,0,0,1-19.68-17.87c-2.39-11.48,2.62-19.85,17.2-28.26-11.51-4.19-18.15-11.88-17.45-24.28.63-11,7.15-17.54,18-21.21-6.32-3.11-12.16-6-15.33-12.21a23,23,0,1,1,42.41-17.23c3.13,12.1-1.82,20.86-16.92,29.52,11.31,3.92,17.94,11.49,17.56,23.53-.35,11.24-6.83,18.23-18.72,22.12,9.77,3.07,15.75,9,18.63,18.06,7.72-14.77,16.81-20.2,28.65-17.4A23,23,0,0,1,1313.3,735a22.77,22.77,0,0,1-17.79,22C1283.13,759.56,1274.14,754.08,1267.33,739.79Z" transform="translate(-114.57 -158.13)"/><path class="cls-1" d="M668.32,1421.22c3.21-10.44,9.79-17.18,21-18,12.7-.87,20.15,6.29,24.7,18,4.54-11.68,12-18.84,24.69-18,11.26.77,17.84,7.51,21,18,0,3.21.05,6.42.08,9.63-2.76,9.51-8.79,15.76-19.11,18.14,14,5,20.09,13.27,19.22,25.32a23.08,23.08,0,0,1-18.56,20.58c-11.82,2.09-20.79-3.5-27.36-17.51-2.59,6-5.67,11.29-11.13,14.58a23,23,0,0,1-34.75-16.76c-1.28-11.69,4-19.67,17.85-26.07-9.23-3.4-15.43-9.12-17.81-18.28Zm45.7,9.11c-3.17,10.31-9.35,16.41-20.4,19,11.37,2,16.94,8.7,20.65,18.66,2.76-10.16,9-15.65,18.67-18.94C722.83,1446.17,717.15,1440,714,1430.33Z" transform="translate(-114.57 -158.13)"/><path class="cls-1" d="M529.93,222.68c3.32-10.8,10.2-17.68,21.8-18.13,12.3-.47,19.83,6.35,24,18.38,3.89-11.11,10.73-18.09,22.23-18.43,12.2-.36,19.74,6.55,24.08,18.75,3-10.39,9.15-15.94,18.27-18.71-14.61-6.62-20.69-16.3-17.88-28.07,2.75-11.52,12.15-18.62,23.91-18.07A23.09,23.09,0,0,1,668,179.25c1.21,11.35-6,20.81-19.28,25,9.22,3,16.62,7.62,18.19,17.94l-.06,10.72c-2.57,10.35-10.22,16.88-20.35,17.4-11.37.58-19.32-5.1-24.32-18.07-4.58,10.56-11.13,18-23,18.08-12.06,0-19-6.86-23.34-18.06-4.59,11.66-12,18.84-24.7,18-11.27-.76-17.86-7.5-21.08-18C530,229.1,530,225.89,529.93,222.68Z" transform="translate(-114.57 -158.13)"/><path class="cls-1" d="M557.44,1265c9.09,2.5,15,8.38,18.23,18.25,2.49-6.57,5.56-11.63,10.79-15a23,23,0,0,1,17.44-3c9.61,1.94,17.1,10.74,17.79,20.45.85,12-5.21,20.21-19,25.21,9.94,2.59,16.18,8.62,18.88,18.21l-.08,9.62q-3.91,13.9-17.81,17.81l-9.05.45c-9.18-2.72-15.62-8.45-19-19.29-3.1,11.15-9.77,16.45-18.74,19.28l-9.07-.44c-10.77-3.35-17.55-10.18-18-21.84-.46-12,6.25-19.31,18.13-23.83-9.44-3.52-15.67-9.22-18-18.38q-.12-4.56-.23-9.12,4.18-14.43,18.61-18.62Zm18.39,26.59c-3.47,10.9-9.55,16.86-20.08,19.21,10.65,2.41,16.77,8.6,20,18.84,3.06-9.74,8.81-15.82,18.88-18.71C584.94,1307.71,578.72,1302.16,575.83,1291.61Z" transform="translate(-114.57 -158.13)"/><path class="cls-1" d="M759.89,877.6c-2.72,9.58-8.9,15.66-18.81,18.17,13,4.92,18.85,12.06,19,22.8.13,11.18-5.37,18.22-18.06,23.09l-9,.45c-9.18-2.72-15.62-8.45-19-19.29-3.1,11.15-9.77,16.45-18.74,19.28l-9.07-.44q-13.89-3.9-17.81-17.81c0-3.2-.05-6.41-.08-9.62,2.5-9.07,8.36-15,18.2-18.21-6.48-2.55-11.57-5.54-14.9-10.77A23,23,0,0,1,688.13,850c11.68-1.22,19.55,4,26,17.83,3.38-9.19,9.1-15.39,18.27-17.78l9.11-.23q14.43,4.18,18.63,18.62C760,871.52,760,874.56,759.89,877.6ZM733,896c-9.89-3.06-15.84-9-18.81-18.51-5.28,11.91-8.37,14.8-19.61,18.54,10.16,2.27,16.25,8.5,19.52,18.72C717.1,905,722.92,898.93,733,896Z" transform="translate(-114.57 -158.13)"/><path class="cls-2" d="M437.28,1108.13c-3.51,10.9-10.54,17.84-22,18.25-11.8.42-19.38-6.21-24-18.49-2.46,7.13-5.75,12.23-11.24,15.32-5.69,3.21-11.7,4.3-18.18,2.26-10.14-3.19-17.13-12.64-16.67-23a23.54,23.54,0,0,1,19-21.88c10.95-2.26,20.52,3.71,27.21,17.4,4.57-11.47,12.35-18.55,24.84-17.6,10.77.82,17.54,7.41,21.08,18.54,2.47-6.45,5.32-11.81,10.82-15,5.65-3.31,11.56-4.68,18.1-2.82,11.07,3.15,17.78,12.33,17.16,23.87-.55,10.44-8.11,18.92-18.83,21.13C453.32,1128.43,443.78,1122.22,437.28,1108.13Z" transform="translate(-114.57 -158.13)"/><path class="cls-1" d="M1423.93,665.13c-9.11-2.51-15-8.42-18.24-18.25-2.46,6.6-5.57,11.67-10.84,15a23.06,23.06,0,0,1-35.07-16.18c-1.49-11.68,3.71-19.64,17.58-26.5-11.6-4.6-18.79-12.29-17.59-25.26,1-10.91,7.72-17.29,17.91-20.39l9.62-.09c12.56,4.84,18.46,12.32,18.28,23.18s-6.56,18.41-19.5,22.77c10.2,2.19,16.24,8.49,19.55,18.6,3.54-10.46,9.59-17.1,20.2-18.42a22.93,22.93,0,0,1,13.7,43c-1.9,1-4,1.66-6,2.47Z" transform="translate(-114.57 -158.13)"/><path class="cls-1" d="M1156.93,850.17c12.73,4.9,18.26,12,18.06,23.28-.19,10.66-6.4,18.16-19.06,22.47,6.19,1.9,11.28,4.65,14.86,9.67a23.1,23.1,0,0,1-14.73,36.1c-11.78,1.89-20.12-3.41-27-17.13-7.92,14.5-17.29,19.9-29,16.74A23,23,0,0,1,1083,918a22.76,22.76,0,0,1,18.28-21.5c12.33-2.34,21.26,3.2,27.72,17.52,2-4,3.45-8,6.44-11.1s7.08-5,11.87-6.92c-11.84-4.51-19-12.13-18.08-24.87.79-11.26,7.63-17.82,18.08-21Z" transform="translate(-114.57 -158.13)"/><path class="cls-1" d="M455.76,665.13c-9.1-2.51-15-8.4-18.23-18.22-2.59,6.78-5.83,12-11.45,15.32a22.66,22.66,0,0,1-17.54,2.41C397.79,662,390.86,652,391.49,640.69a22.74,22.74,0,0,1,18.19-20.81c12.35-2.36,21.32,3.18,27.75,17.5,2-4,3.43-8,6.44-11s7-5.13,12.24-6.91c-6.85-2.67-12.28-5.75-15.55-11.63a23.21,23.21,0,0,1-1.88-18.94c3.27-10.39,13.9-16.78,25.11-15.4a23,23,0,0,1,19.51,19.66c1.44,12.33-5,21.45-18.84,26.13,12,3.88,19.33,11.19,18.9,24-.4,11.66-7.21,18.48-18,21.83Z" transform="translate(-114.57 -158.13)"/><path class="cls-1" d="M1359.87,1282.91c3.22-10.47,9.82-17.2,21.11-18,12.66-.85,20.07,6.35,24.54,17.63,7.25-14.53,16.67-20.13,28.6-17.24a23,23,0,0,1,17.49,23,22.76,22.76,0,0,1-17.82,21.89c-12.4,2.59-21.36-2.87-28.33-17.56-3.13,9.6-9.18,15.88-19.37,18.1,14.28,4.78,20.87,14,19.17,26.42a22.71,22.71,0,0,1-21,19.65c-11.35.63-21.15-6.33-24-17-3.21-12,2.66-22.17,17.37-29-9.23-3.4-15.43-9.12-17.81-18.28C1359.82,1289.33,1359.84,1286.12,1359.87,1282.91Z" transform="translate(-114.57 -158.13)"/><path class="cls-1" d="M206.65,739.29c-4.77,12.37-11.82,18.3-22.48,18.22-11.93-.08-19.23-6.68-23.27-18.41-3.55,9.72-9.19,16.4-19.68,18.22,14.74,5.35,21.12,14.58,19.17,27.1a22.71,22.71,0,0,1-20.72,19.14c-11.37.72-21.18-6.1-24.17-16.82-3.34-12,2.31-21.78,16.73-29.09-14.15-7.49-19.34-15.87-17.1-27.65a23.4,23.4,0,0,1,18.62-18.16c11.78-1.9,20.15,3.41,27.17,17.5,4.59-11.6,12.3-18.78,25.27-17.58,10.9,1,17.28,7.73,20.38,17.91C206.6,732.88,206.62,736.09,206.65,739.29Z" transform="translate(-114.57 -158.13)"/><path class="cls-1" d="M870.69,1356.68c-9.11-2.5-15-8.42-18-17.54-8,14.62-16.15,19.61-27.86,17.41a23.24,23.24,0,0,1-18.28-19.32c-1.47-11.67,3.69-19.56,17.19-26.29-14.77-8.1-20.16-17.84-16.48-29.75,3.31-10.72,13.18-17.25,24.56-16.25A22.74,22.74,0,0,1,852,1284.65c1.64,12.29-4.84,21.36-19,26.34,9.82,2.21,16,8.12,19.23,18.39,4.61-12,12.2-19.21,24.93-18.31,11.27.8,17.85,7.63,21.06,18.09q.12,4.56.23,9.12-4.18,14.43-18.61,18.62Z" transform="translate(-114.57 -158.13)"/><path class="cls-1" d="M345,601c-2.69,9.59-8.93,15.62-18.9,18.23,13.79,4.94,19.91,13.24,19,25.31A23.05,23.05,0,0,1,326.41,665c-11.82,2-20.6-3.48-27.32-17.52-2.6,6-5.6,11.4-11.21,14.65a22.74,22.74,0,0,1-18.23,2.29c-10.52-3-17.06-12.57-16.48-23.69a22.79,22.79,0,0,1,18.15-20.89c12.34-2.38,21.39,3.18,27.85,17.63,3.19-8.9,8.55-15.22,18.66-18-12.2-4.66-19.37-12.26-18.47-25,.8-11.27,7.63-17.84,18.09-21.06l9.11-.23q14.43,4.18,18.63,18.62Z" transform="translate(-114.57 -158.13)"/><path class="cls-1" d="M1285.62,941.75c-12.35-4.76-18.27-11.78-18.22-22.43.06-11.9,6.59-19.23,18.83-23.46-10-2.94-15.92-8.94-18.9-18.76-3.63,10.66-9.72,17.23-20.32,18.53a22.92,22.92,0,0,1-13.61-43,61.37,61.37,0,0,1,6-2.47l9.62-.09c9.16,2.43,15,8.55,18.41,18.3,3.29-10,9.21-15.8,18.22-18.3l9.62.08c12.72,4.89,18.25,12,18.06,23.26-.18,10.68-6.39,18.18-19,22.44,11.92,3.88,19.33,11.16,18.88,24-.41,11.65-7.22,18.47-18,21.81Z" transform="translate(-114.57 -158.13)"/><path class="cls-1" d="M1083.25,1006.29c3.36-10.78,10.2-17.55,21.87-18,12.09-.45,19.29,6.34,23.75,17.9,2.66-6.28,5.78-11.49,11.22-14.76a23,23,0,0,1,34.89,19c.29,11.41-5.77,19.15-19.06,23.89,10,2.63,16.21,8.65,18.9,18.23q.12,4.56.23,9.12-4.18,14.43-18.61,18.62l-9.13-.22c-10.44-3.22-17.29-9.77-18.08-21-.9-12.74,6.22-20.38,18.5-25-10.12-2.77-15.55-9-18.79-18.35-4.07,11.82-11.38,18.39-23.31,18.46-10.65.07-17.68-5.83-22.47-18.21Z" transform="translate(-114.57 -158.13)"/><path class="cls-1" d="M594.07,665.13c-9.05-2.56-15.09-8.31-18.16-18.42-2.66,7-5.91,12.21-11.53,15.52a22.65,22.65,0,0,1-17.54,2.41c-10.75-2.7-17.68-12.62-17-24A22.77,22.77,0,0,1,548,619.87c12.34-2.35,21.28,3.19,27.79,17.65,3.14-8.95,8.55-15.23,18.65-18-12.23-4.66-19.37-12.27-18.48-25,.8-11.26,7.64-17.82,18.09-21l9.11-.23q14.43,4.18,18.63,18.62l-.22,9.12c-2.73,9.59-8.93,15.67-19.39,18.32,10.46,2.64,16.66,8.73,19.39,18.32.07,3,.15,6.07.22,9.11q-4.18,14.41-18.61,18.62Z" transform="translate(-114.57 -158.13)"/><path class="cls-1" d="M806.55,499.3c4.77-12.36,11.81-18.29,22.46-18.22,11.93.08,19.24,6.66,23.29,18.41,3.36-9.14,8.55-15.66,19.18-18.23-7.31-2.81-12.75-5.92-16-11.83a23.17,23.17,0,0,1-1.83-18.93c3.21-10.15,13.38-16.44,24.4-15.41a22.92,22.92,0,0,1,20.2,19.74c1.42,12.33-5,21.42-18.83,26.1,11.94,3.89,19.33,11.18,18.89,24-.4,11.65-7.22,18.47-18,21.82l-9,.45c-9.18-2.72-15.62-8.45-18.93-19-3.3,10.75-9.79,16.25-18.82,19l-8.56-.12q-14.43-4.2-18.63-18.62C806.4,505.39,806.47,502.34,806.55,499.3Z" transform="translate(-114.57 -158.13)"/><path class="cls-2" d="M1176.31,556a1.72,1.72,0,0,0-2.25,1.2c-4.1,10.74-12,16.51-23.35,15.94-11.1-.57-18-7.31-21.61-18.54-1.06,2.48-1.68,4.4-2.64,6.13-4.48,8.06-11.42,12.56-20.62,12.49-8.85-.07-15.61-4.27-20.22-12-1.08-1.82-.41-5.2-3.94-5.21V544.32a1.73,1.73,0,0,0,2.25-1.2c4.1-10.74,12-16.52,23.35-15.94,11.1.56,18,7.31,21.61,18.54,1.06-2.49,1.68-4.4,2.64-6.13,4.48-8.06,11.42-12.56,20.62-12.49,8.85.07,15.61,4.27,20.22,12,1.08,1.81.41,5.2,3.94,5.21Z" transform="translate(-114.57 -158.13)"/><path class="cls-2" d="M1220,544.32a1.73,1.73,0,0,0,2.25-1.2c4.1-10.74,12-16.52,23.35-15.94,11.1.56,18,7.31,21.61,18.54,1.06-2.49,1.68-4.4,2.64-6.13,4.48-8.06,11.42-12.56,20.62-12.49,8.85.07,15.61,4.27,20.22,12,1.08,1.81.41,5.2,3.94,5.21V556a1.65,1.65,0,0,0-2.21,1.14c-2.62,8.75-9.63,12.87-17.18,16.44l-9.61-.08c-8.44-3.63-15.64-8.51-18.15-19.56-2.4,7.18-5.43,12.49-11,15.76s-11.54,4.6-18.06,2.73a23.83,23.83,0,0,1-14.82-11.87c-.93-1.65-.31-4.73-3.6-4.56Z" transform="translate(-114.57 -158.13)"/><path class="cls-2" d="M500.77,390a1.72,1.72,0,0,0-1.19-2.25c-10.74-4.1-16.54-12-15.94-23.35.58-11.06,7.23-18.07,18.63-21.57-2.58-1.09-4.5-1.71-6.22-2.67-8.07-4.49-12.56-11.43-12.49-20.63.06-8.84,4.26-15.6,12-20.22,1.81-1.08,5.2-.41,5.2-3.94h11.66c-.41,1.59.74,2.13,1.84,2.57,10.46,4.12,15.64,12,15.35,23-.27,10.55-7,17.71-19.75,21.9,11,1.79,16.22,9.21,20.06,18.15l.07,9.61c-2.88,9.16-10.56,14-17.57,19.39Z" transform="translate(-114.57 -158.13)"/><path class="cls-2" d="M777.39,666.61a1.72,1.72,0,0,0-1.19-2.25c-10.74-4.09-16.52-12-15.94-23.35.56-11.09,7.31-18,18.53-21.61-2.48-1-4.4-1.67-6.12-2.63-8.07-4.49-12.56-11.43-12.49-20.63.06-8.84,4.26-15.6,12-20.22,1.81-1.08,5.2-.41,5.2-3.94h11.66c-.41,1.59.74,2.13,1.84,2.57,10.47,4.13,15.65,12,15.35,23-.29,10.55-7,17.65-19.22,21.71,12.27,4.05,18.93,11.16,19.22,21.71.3,11-4.88,18.91-15.35,23-1.1.43-2.25,1-1.84,2.56Z" transform="translate(-114.57 -158.13)"/><path class="cls-2" d="M390.13,820.94a1.73,1.73,0,0,0,2.25-1.2c4.1-10.74,12-16.52,23.35-15.94,11.1.56,18,7.31,21.61,18.54,1.06-2.49,1.68-4.4,2.64-6.13,4.48-8.06,11.42-12.56,20.62-12.49,8.85.07,15.61,4.27,20.22,12,1.08,1.81.41,5.2,3.94,5.21l-.21,10.69c-2.77,1.35-2.69,4.45-4.05,6.66-4.57,7.44-11.25,11.45-19.82,11.52-8.9.07-15.81-4.06-20.3-11.88-1.1-1.93-1.92-4-3.09-6.53-3.7,11.33-10.86,18.12-22.36,18.35-11.08.22-18.71-5.58-22.6-16.11-.3-.81-1.31-1.35-2-2Z" transform="translate(-114.57 -158.13)"/><path class="cls-2" d="M1009,1080.06l9.58-.06c9.27,3.21,14.72,10.36,19.21,18.53l.21,10.68a1.72,1.72,0,0,0-2.25,1.2c-4.1,10.74-12,16.51-23.35,15.94-11.1-.57-18-7.31-21.61-18.54-1.06,2.48-1.68,4.4-2.64,6.13-4.48,8.06-11.42,12.56-20.62,12.49-8.84-.07-15.61-4.27-20.22-12-1.08-1.82-.41-5.2-3.94-5.21l.21-10.69c2.32-1,2.4-3.48,3.38-5.36a23.13,23.13,0,0,1,14.72-12c6.52-1.91,12.46-.64,18.11,2.66s8.66,8.59,11.05,15.82C993.35,1088.59,1000.53,1083.68,1009,1080.06Z" transform="translate(-114.57 -158.13)"/><path class="cls-2" d="M806.55,499.3c-.08,3-.15,6.09-.23,9.13-2.39,10-10.22,14.91-18.25,19.66l-10.68.21a1.72,1.72,0,0,0-1.19-2.25c-10.74-4.09-16.54-12-15.94-23.35.58-11.06,7.23-18.07,18.63-21.57-2.58-1.09-4.5-1.71-6.22-2.67C764.6,474,760.11,467,760.18,457.83c.06-8.84,4.26-15.6,12-20.22,1.81-1.08,5.2-.41,5.2-3.94h11.66c-.41,1.59.74,2.13,1.84,2.57,10.46,4.12,15.64,12,15.35,23-.27,10.55-7,17.71-19.75,21.9C797.45,483,802.72,490.36,806.55,499.3Z" transform="translate(-114.57 -158.13)"/><path class="cls-2" d="M1036.74,1200c-.08-3-.15-6.08-.23-9.12,5.89-12,7.49-13.59,18.78-18.41-6.4-2.14-11.71-5.17-15-10.73s-4.61-11.55-2.74-18.07a23.81,23.81,0,0,1,11.88-14.82c1.64-.92,4.72-.3,4.55-3.6h11.66c-.41,1.59.74,2.13,1.84,2.57,10.47,4.13,15.65,12,15.35,23-.29,10.55-6.95,17.65-19.22,21.71,12.27,4,18.93,11.16,19.22,21.71.3,11-4.88,18.91-15.35,23-1.1.43-2.25,1-1.84,2.56l-10.69-.21C1047,1214.88,1039.11,1210,1036.74,1200Z" transform="translate(-114.57 -158.13)"/><path class="cls-2" d="M1065.67,433.67c-.41,1.59.74,2.13,1.84,2.57,10.47,4.13,15.65,12,15.35,23-.29,10.55-6.95,17.65-19.22,21.71,12.27,4.05,18.93,11.16,19.22,21.71.3,11-4.88,18.91-15.35,23-1.1.43-2.25,1-1.84,2.56l-10.69-.21c-8-4.76-15.87-9.67-18.24-19.67q-.1-4.56-.23-9.12c3.64-8.44,8.52-15.63,19.56-18.14-7.18-2.41-12.49-5.44-15.75-11s-4.61-11.54-2.74-18.06a23.81,23.81,0,0,1,11.88-14.82c1.64-.92,4.72-.31,4.55-3.6Z" transform="translate(-114.57 -158.13)"/><path class="cls-2" d="M206.65,739.29c0-3.2-.05-6.41-.08-9.62,3.74-8,8.17-15.25,20-17.89-8.2-2.82-13.29-6.12-16.38-11.61-3.2-5.67-4.3-11.66-2.27-18.13,3.25-10.38,13.07-17.47,23.55-16.69A23.67,23.67,0,0,1,253,685.56c1.6,10.79-4.78,20.25-19,26.16,10.78,2.57,15.76,9.63,19.39,18l-.07,9.61c-7.33,14.9-15.92,20.24-28.37,17.7C215.06,755,210.31,747.71,206.65,739.29Z" transform="translate(-114.57 -158.13)"/><path class="cls-2" d="M1358.3,820.94a1.73,1.73,0,0,0,2.25-1.21c4.11-10.76,12-16.54,23.4-15.92,11.1.6,18.08,7.3,21.62,18.94,2.27-7,5.35-12.29,11-15.56,5.41-3.16,11.13-4.5,17.42-2.83,11.19,3,18.06,12,17.65,23.49-.38,10.78-8.07,19.55-19.06,21.7-11.24,2.21-21.08-4.23-26.91-18.1-1,2.22-1.57,4.08-2.5,5.78-4.47,8.1-11.4,12.62-20.62,12.58-8.86,0-15.64-4.25-20.26-12-1.09-1.82-.42-5.21-4-5.22Z" transform="translate(-114.57 -158.13)"/><path class="cls-2" d="M944.85,637.62l.09,9.61c-2.9,9.15-10.57,14-17.58,19.38H915.7c.41-1.58-.74-2.13-1.84-2.56-10.17-4-15.57-11.6-15.32-22.29.27-11.44,7-18.59,19.3-22.61-11-2.49-16.09-9.59-19.64-18.16.08-3,.15-6.09.23-9.13,2.39-10,10.22-14.92,18.25-19.66h9.72c.89.78,1.64,1.89,2.67,2.29,10.52,4.09,15.71,11.95,15.49,23-.22,10.56-7,17.82-19.78,22C935.76,621.28,941,628.67,944.85,637.62Z" transform="translate(-114.57 -158.13)"/><path class="cls-2" d="M943.37,544.32c1.59.41,2.13-.74,2.56-1.85,4-10.17,11.6-15.57,22.29-15.32,11.45.27,18.59,7,22.62,19.3,2.48-11,9.58-16.09,18.16-19.64l9.13.23c10,2.39,14.91,10.22,19.65,18.25q0,4.86,0,9.72c-2.77,1.35-2.69,4.45-4,6.66-4.57,7.44-11.25,11.45-19.82,11.52-8.9.07-15.81-4.07-20.3-11.88-1.1-1.93-1.92-4-3-6.31-5.21,12.29-12.35,18.31-22.46,18.2-11.1-.12-18.71-5.65-22.6-16.18-.3-.81-1.31-1.35-2-2Z" transform="translate(-114.57 -158.13)"/><path class="cls-2" d="M253.38,1062.15c-6.37,12.07-6.37,12.07-18.14,18.53,6.39,2.2,11.48,5.5,14.57,11,3.2,5.67,4.3,11.66,2.27,18.13-3.25,10.37-13.07,17.46-23.55,16.69A23.68,23.68,0,0,1,207,1106.28c-1.6-10.8,4.78-20.25,19-26.17-10.78-2.56-15.76-9.63-19.39-18,0-3.2,0-6.41.07-9.61,7.33-14.9,15.92-20.24,28.37-17.7,9.88,2,14.63,9.29,18.29,17.7C253.33,1055.74,253.36,1059,253.38,1062.15Z" transform="translate(-114.57 -158.13)"/><path class="cls-2" d="M1249,850.09l-9.62.09c-9.14-2.91-14-10.57-19.38-17.59V820.94a1.73,1.73,0,0,0,2.25-1.2c4.1-10.74,12-16.52,23.35-15.94,11.1.56,18,7.31,21.61,18.54,1.06-2.49,1.68-4.4,2.64-6.13,4.48-8.06,11.42-12.56,20.62-12.49,8.85.07,15.61,4.27,20.22,12,1.08,1.81.41,5.2,3.94,5.21v11.65a1.65,1.65,0,0,0-2.21,1.15c-2.62,8.74-9.63,12.86-17.17,16.43l-9.62-.08c-8.58-3.56-15.7-8.63-18.32-20.33C1264.61,841.6,1257.42,846.47,1249,850.09Z" transform="translate(-114.57 -158.13)"/><path class="cls-2" d="M512.43,433.67c-.41,1.6.75,2.13,1.85,2.57,10.48,4.14,15.93,12.06,15.27,23.09-.7,11.7-7.91,18.67-19.31,21.63,13.6,4.42,20.82,14,19.39,25.52A23.08,23.08,0,0,1,507.7,527c-11.72.41-21.05-6.82-23.68-18.36S487.69,487,501.91,481c-2.21-.95-4.08-1.58-5.78-2.51-8.1-4.46-12.62-11.4-12.57-20.62,0-8.86,4.24-15.63,12-20.26,1.81-1.08,5.2-.41,5.21-3.95Z" transform="translate(-114.57 -158.13)"/><path class="cls-2" d="M391.62,739.3c-6.07,12.35-8.47,14.61-19.48,18.34,12.2,4,18.9,11.16,19.17,21.7.29,11-4.89,18.9-15.35,23-1.1.43-2.25,1-1.84,2.56H362.46c.41-1.58-.74-2.13-1.84-2.56-10.17-4-15.57-11.59-15.32-22.28.26-11.44,7-18.59,18.4-22.33-1.88-.86-3.22-1.45-4.56-2.08-9.61-4.52-15.25-14.32-13.82-24,1.52-10.27,9.54-18.51,19.34-19.89,10.92-1.53,20.58,4,25.12,14.26.56,1.26.25,3,1.91,3.65Z" transform="translate(-114.57 -158.13)"/><path class="cls-2" d="M898.2,1467.47c3.66-8.41,8.4-15.75,19.85-18-7.47-2.5-12.78-5.53-16-11.09s-4.61-11.55-2.74-18.07a23.84,23.84,0,0,1,11.88-14.82c1.64-.92,4.72-.3,4.55-3.6h11.66c-.41,1.59.72,2.22,1.84,2.55,10.66,3.14,16.49,15,15.35,23.74-1.49,11.33-8.2,18.17-19.33,20.95,19.84,5.28,24,24.92,14.56,37.26-10.15,13.32-30.93,11.34-38.83-3.64-1-1.86-.67-4.37-2.82-5.62C898.15,1473.88,898.18,1470.67,898.2,1467.47Z" transform="translate(-114.57 -158.13)"/><path class="cls-2" d="M1036.44,314.76c4.1-9.11,9.54-16.75,20.52-18,12.23-1.35,22.41,5.86,25.34,17.83,2.66,10.86-3.13,21.8-14,26.37-1.51.63-3.07,1.13-4.65,1.7,12.23,4,18.95,11.18,19.21,21.72.28,11-4.9,18.89-15.35,23-1.1.43-2.25,1-1.84,2.56H1054c.41-1.58-.74-2.13-1.84-2.56-10.17-4-15.57-11.6-15.32-22.29.27-11.44,7-18.59,19.3-22.61-11-2.49-16.09-9.59-19.64-18.16C1036.49,321.17,1036.47,318,1036.44,314.76Z" transform="translate(-114.57 -158.13)"/><path class="cls-2" d="M1083.25,1006.29l-.09,9.62c-3.64,8.43-8.4,15.7-18.28,17.71-12.49,2.54-21.07-2.79-28.36-17.71l-.09-9.62c3.74-8,8.17-15.25,20-17.89-8.2-2.82-13.29-6.12-16.38-11.61-3.2-5.67-4.3-11.66-2.27-18.13,3.25-10.38,13.07-17.47,23.55-16.69a23.67,23.67,0,0,1,21.52,20.21c1.6,10.79-4.78,20.25-19,26.17C1074.63,990.9,1079.6,998,1083.25,1006.29Z" transform="translate(-114.57 -158.13)"/><path class="cls-2" d="M944.94,1006.29l-.09,9.62c-3.81,8.94-9.09,16.34-20.07,18.16,12.81,4.17,19.56,11.43,19.78,22,.22,11-5,18.89-15.49,23-1,.4-1.8,1.5-2.69,2.28l-10.68.21a1.63,1.63,0,0,0-1.14-2.2c-8.74-2.63-12.87-9.63-16.43-17.19,0-3.2,0-6.41.07-9.61,3.64-8.42,8.5-15.62,19.69-18.16-6.81-2.21-11.75-4.9-15.07-9.72s-5.09-10.41-4.23-16.43c1.48-10.27,9.56-18.48,19.35-19.83,10.7-1.48,20.1,3.74,24.79,13.61C943.41,1003.45,943,1005.52,944.94,1006.29Z" transform="translate(-114.57 -158.13)"/><path class="cls-2" d="M530,729.67c0,3.21-.06,6.41-.08,9.62-3.82,8.94-9.1,16.34-20.08,18.16,12.81,4.17,19.56,11.43,19.78,22,.22,11-5,18.9-15.49,23-1,.4-1.8,1.5-2.69,2.28l-10.68.21c.41-1.58-.74-2.13-1.84-2.56-10.17-4-15.57-11.59-15.32-22.28.26-11.44,7-18.59,18.4-22.33-1.88-.86-3.22-1.45-4.56-2.08-9.61-4.52-15.25-14.32-13.82-24,1.52-10.27,9.54-18.51,19.34-19.89,10.71-1.5,20.13,3.73,24.83,13.6C528.48,726.82,528,728.89,530,729.67Z" transform="translate(-114.57 -158.13)"/><path class="cls-2" d="M1313.14,1154.22q.1-4.56.22-9.12c2.39-10,10.22-14.92,18.25-19.66h9.71c8,4.76,15.87,9.67,18.24,19.67q.11,4.56.23,9.12c-3.84,8.93-9.1,16.35-20.06,18.15,12.78,4.19,19.48,11.35,19.75,21.89.29,11-4.89,18.9-15.35,23-1.1.43-2.25,1-1.84,2.56l-10.7-.21c-1-2.32-3.48-2.4-5.35-3.37a23.21,23.21,0,0,1-12-14.73c-1.9-6.52-.63-12.46,2.66-18.1s8.6-8.67,15.83-11C1321.67,1169.88,1316.76,1162.69,1313.14,1154.22Z" transform="translate(-114.57 -158.13)"/><path class="cls-2" d="M603.18,573.24l-9.11.23c-8.45-3.66-15.77-8.44-18.09-19.92-2.44,7.59-5.53,12.9-11.15,16.18-5.41,3.15-11.13,4.48-17.41,2.82-11.19-3-18.06-12-17.65-23.5.38-10.77,8.07-19.53,19.05-21.69,11.24-2.22,21.09,4.23,27.16,18.69,2.44-10.61,9.5-15.71,18.09-19.24l9.13.23c10,2.39,14.91,10.22,19.65,18.26,0,3.23,0,6.47,0,9.7C618.1,563,613.19,570.88,603.18,573.24Z" transform="translate(-114.57 -158.13)"/><path class="cls-2" d="M1249,1126.71l-9.57,0c-7.62-3.5-14.57-7.67-17.22-16.41a1.65,1.65,0,0,0-2.21-1.14v-11.65c1.59.41,2.13-.74,2.56-1.85,4-10.17,11.6-15.57,22.29-15.32,11.45.27,18.59,7,22.62,19.31,2.48-11,9.58-16.1,18.16-19.65l9.13.23c10,2.39,14.91,10.22,19.65,18.26,0,3.23,0,6.47,0,9.7-4.76,8-9.67,15.88-19.68,18.24l-9.11.23c-8.58-3.56-15.7-8.63-18.39-18.56C1264.73,1118.34,1257.39,1123.06,1249,1126.71Z" transform="translate(-114.57 -158.13)"/><path class="cls-2" d="M621.81,646.73c-.07-3-.15-6.08-.22-9.11,3.56-8.59,8.62-15.71,20.32-18.32-11.84-2.7-16.7-9.89-20.32-18.32l.22-9.12c2.39-10,10.22-14.92,18.25-19.66l10.68-.22a1.65,1.65,0,0,0,1.14,2.21c8.75,2.63,12.87,9.63,16.43,17.19,0,3.2,0,6.4-.07,9.61-3.84,8.93-9.1,16.35-20.06,18.15,12.78,4.18,19.48,11.35,19.75,21.89.29,11-4.89,18.9-15.35,23-1.1.43-2.25,1-1.84,2.56l-10.69-.21C632,661.64,624.18,656.73,621.81,646.73Z" transform="translate(-114.57 -158.13)"/><path class="cls-2" d="M871.26,527.18l9-.45c9.14,2.91,14,10.57,19.38,17.59L899.48,555c-4.76,8-9.67,15.88-19.68,18.24l-9.11.23c-8.44-3.63-15.64-8.51-18.15-19.56-2.4,7.18-5.43,12.49-11,15.76s-11.54,4.6-18.06,2.73a23.83,23.83,0,0,1-14.82-11.87c-.93-1.65-.31-4.73-3.6-4.56l.21-10.68c4.76-8,9.67-15.88,19.68-18.24l8.56.12c9.54,2.59,15.88,8.55,18.87,19C855.36,535.71,861.7,529.75,871.26,527.18Z" transform="translate(-114.57 -158.13)"/><path class="cls-2" d="M733,942.11l9-.45c9.14,2.91,14,10.57,19.38,17.59V970.9c-1.59-.41-2.13.74-2.56,1.84-4,10.17-11.6,15.57-22.28,15.32-11.44-.26-18.59-7-22.33-18.4-.86,1.88-1.46,3.23-2.08,4.56-4.52,9.61-14.32,15.25-24,13.82-10.26-1.52-18.51-9.54-19.88-19.34-1.5-10.71,3.73-20.13,13.6-24.82,1.44-.69,3.51-.25,4.29-2.22l9.07.44c9.54,2.59,15.88,8.55,18.87,19C717.05,950.64,723.39,944.68,733,942.11Z" transform="translate(-114.57 -158.13)"/><path class="cls-2" d="M898.43,1338.28q-.1-4.56-.23-9.12c3.63-8.44,8.52-15.63,19.56-18.14-7.18-2.41-12.49-5.44-15.75-11s-4.61-11.55-2.74-18.07a23.81,23.81,0,0,1,11.88-14.82c1.64-.92,4.72-.3,4.55-3.6l10.7.22c8,4.76,15.86,9.67,18.23,19.67.07,3,.15,6.07.22,9.11-3.83,9-9.12,16.38-21.08,18.32,12,1.93,17.25,9.35,21.09,18.32l-.23,9.12c-2.39,10-10.22,14.91-18.25,19.66h-9.71C908.65,1353.19,900.8,1348.28,898.43,1338.28Z" transform="translate(-114.57 -158.13)"/><path class="cls-2" d="M1036.51,877.6c0-3.2,0-6.41-.08-9.62,6.36-12,6.36-12,18.1-18.53-6.39-2.2-11.5-5.53-14.59-11.08-3.18-5.7-4.22-11.73-2.15-18.2,3.23-10.1,12.75-17.06,23-16.53a23.61,23.61,0,0,1,21.91,19.87c1.79,10.81-4.61,20.55-16.91,25.68.17,2.26,2.27,2,3.6,2.67,9.55,4.87,15,14.8,13.29,24.44a23.06,23.06,0,0,1-20.64,19.42c-10.61,1.09-19.62-4.58-24-15.05C1037.67,879.61,1037.05,878.62,1036.51,877.6Z" transform="translate(-114.57 -158.13)"/><path class="cls-2" d="M1285.62,941.75l9.62-.09c7.84,3.9,15.46,8,18,17.92,2.73-6.21,6.07-11.32,11.61-14.41,5.71-3.18,11.73-4.22,18.2-2.15,10.1,3.23,17.06,12.75,16.54,23.05A23.62,23.62,0,0,1,1339.71,988c-10.81,1.8-20.55-4.6-25.67-16.91-2.27.17-2,2.27-2.67,3.6-4.88,9.55-14.8,15-24.44,13.29a23.06,23.06,0,0,1-19.43-20.64c-1.08-10.61,4.59-19.62,15.06-24C1283.61,942.9,1284.6,942.28,1285.62,941.75Z" transform="translate(-114.57 -158.13)"/><path class="cls-2" d="M1359.79,1430.85c-3.9,9-9.06,16.44-19.79,18-11.19,1.56-21.66-4.58-25.3-15a22.9,22.9,0,0,1,10.26-27.58c1.84-1.06,3.78-1.94,6.57-3.36-6.6-2.25-11.55-5.44-14.67-10.76s-4.48-11.13-2.78-17.41c2.89-10.67,12.21-18,22.84-17.78a23.55,23.55,0,0,1,22.34,19.37c2.12,11-4.3,21-18.81,27.06,10.84,2.54,15.78,9.63,19.41,18C1359.84,1424.44,1359.81,1427.64,1359.79,1430.85Z" transform="translate(-114.57 -158.13)"/><path class="cls-2" d="M898.2,361c3.9-9,9.06-16.45,19.79-17.95,11.19-1.56,21.66,4.58,25.31,15A22.93,22.93,0,0,1,933,385.67c-1.84,1.06-3.78,1.94-6.57,3.36,6.6,2.24,11.55,5.44,14.67,10.76s4.48,11.12,2.78,17.41c-2.89,10.67-12.21,18-22.84,17.78a23.56,23.56,0,0,1-22.34-19.37c-2.12-11,4.3-21,18.81-27.06-10.84-2.55-15.78-9.64-19.41-17.95C898.15,367.4,898.18,364.19,898.2,361Z" transform="translate(-114.57 -158.13)"/><path class="cls-2" d="M594.64,1357l9.05-.45c8.86,4,16.39,9.29,17.88,19.89A22.72,22.72,0,0,1,605,1402.11c-11,3.18-22-1.9-27.17-12.54-.73-1.51-1.31-3.09-2-4.78-6.86,15.26-17.35,21.25-30.05,17.12-9.15-3-14.57-9.41-15.86-18.91a22.91,22.91,0,0,1,11.61-23.26c2.05-1.18,4.78-.94,6.28-3.15l9.07.44c9.54,2.59,15.88,8.55,18.87,19C578.74,1365.57,585.08,1359.61,594.64,1357Z" transform="translate(-114.57 -158.13)"/><path class="cls-1" d="M898.2,361c0,3.2-.05,6.41-.07,9.61-3.36,10.77-10.18,17.55-21.84,18-12.07.46-19.29-6.29-23.87-18.1-3.48,9.42-9.19,15.63-18.36,18l-9.62-.08c-9.87-2.95-16.42-9.12-17.86-19.58a23,23,0,0,1,43.49-13.07c.75,1.49,1.35,3.06,2.3,5.25,4.22-11.7,11.74-18.72,24.16-18.16C888.07,343.38,894.9,350.25,898.2,361Z" transform="translate(-114.57 -158.13)"/><path class="cls-1" d="M253.38,1062.15c0-3.2,0-6.41-.07-9.61,3.32-10.8,10.2-17.68,21.8-18.13,12.3-.47,19.83,6.35,23.77,17.76,7.93-15.07,17.3-20.4,29.66-17.07,10,2.68,16.86,12.24,16.58,23a23.08,23.08,0,0,1-18.07,21.82c-11.88,2.46-21-3.09-28-17.42-4.61,11.62-12.3,18.81-25.25,17.62C262.87,1079.07,256.49,1072.34,253.38,1062.15Z" transform="translate(-114.57 -158.13)"/><path class="cls-1" d="M1083.25,729.67c3-9.89,9.15-16.44,19.64-17.87a22.94,22.94,0,0,1,25.2,16.24c3.25,11.64-2.37,23.1-13.71,27.9-1.43.61-2.94,1-4.69,1.67,14.06,4.59,20.68,13.95,18.93,26.39a22.68,22.68,0,0,1-21.06,19.57c-11.35.6-21.13-6.37-24-17.08-3.17-12,2.69-22.12,17.38-28.92-9.22-3.39-15.42-9.11-17.8-18.28C1083.2,736.09,1083.22,732.88,1083.25,729.67Z" transform="translate(-114.57 -158.13)"/><path class="cls-1" d="M990.67,775.72c6.56-14.52,16-20.19,28.49-17.42a22.83,22.83,0,0,1,17.52,22.19,23.07,23.07,0,0,1-17.87,22.74c-11.87,2.61-21.41-3.14-28.11-17.37-2.79,6.18-5.87,11.73-11.83,14.92a22.62,22.62,0,0,1-18.27,1.75c-10.52-3.41-16.71-12.94-15.85-24.12a22.77,22.77,0,0,1,18.8-20.32C975.64,756.07,984.36,761.6,990.67,775.72Z" transform="translate(-114.57 -158.13)"/><path class="cls-1" d="M834.06,1126.71c12.56,4.84,18.46,12.33,18.28,23.19s-6.56,18.4-19,22.6c13.87,4.9,20.32,13.92,18.72,26.16a22.71,22.71,0,0,1-20.83,19.83c-11.36.72-21.17-6.11-24.16-16.81-3.35-12,2.32-21.83,17.05-29.25-11.29-4.45-18.47-11.87-17.62-24.55.76-11.27,7.5-17.87,18-21.08Z" transform="translate(-114.57 -158.13)"/><path class="cls-1" d="M741.47,1310.76c14.08,5.6,20.34,14.86,18.37,27.16a23,23,0,0,1-21.76,18.91c-11,.35-20.73-6.79-23.24-17-3.05-12.48,2.64-22.15,17-28.85-14.75-7.56-20.21-17.08-16.88-29.48,2.81-10.44,13-17.38,24.33-16.54a23,23,0,0,1,20.63,19.31C761.58,1296.64,755.2,1305.84,741.47,1310.76Z" transform="translate(-114.57 -158.13)"/><path class="cls-1" d="M603.2,527l-9.13-.23C581.72,522.05,576,515,575.8,504.37c-.19-10.36,5.34-17.67,18.11-23.4-11.74-4.38-18.81-12.06-17.92-24.81.79-11.25,7.65-17.79,18.08-21l9.62.08c12.69,4.87,18.19,11.91,18.06,23.1-.13,10.73-6,17.88-19,22.8,9.91,2.51,16.09,8.59,18.81,18.16l.23,9.12Q617.63,522.83,603.2,527Z" transform="translate(-114.57 -158.13)"/><path class="cls-1" d="M1249,1265c12.59,4.86,18.45,12.32,18.25,23.22s-6.45,18.29-19,22.61c12.55,4.29,18.87,11.79,19.07,22.61s-5.71,18.37-18.28,23.22l-9.62-.09q-13.89-3.91-17.8-17.8l-.09-9.63c2.46-9.15,8.52-15,18.33-18.41-10.3-3.26-15.94-9.59-18.62-18.68.13-3.06.25-6.11.38-9.17,2.6-9.29,8.58-15.19,17.83-17.82Z" transform="translate(-114.57 -158.13)"/><path class="cls-1" d="M758.71,280.17c-2.1,8.52-7.55,13.51-16.08,15.25L732,295.5c-9.88-1.39-14.46-8.55-18-17.4-3.56,9.55-8.61,16.42-18.79,17.67l-9.71-.35c-11-2.7-17.57-11.08-17.44-22.25.12-10.79,6.68-18.9,17.43-21.55l10.73-.06c10,1.41,14.45,8.61,17.74,17.16,6-13.1,13.75-18.92,24.28-18.31,9.83.57,17.47,6.71,20.46,16.47A29,29,0,0,1,758.71,280.17Z" transform="translate(-114.57 -158.13)"/><path class="cls-2" d="M696.23,251.56l-10.73.06c-2.68-4.43-8.32-4.71-11.67-8.55-2.78-3.17-2.85-8.08-7-10.14l.06-10.72c2.77-.6,2.52-3.31,3.49-5.11,5-9.37,14.47-14.07,24.91-12.23a22.37,22.37,0,0,1,18.41,19c1.51,10.16-3.21,19.29-12.35,24.2C699.53,249,696.82,248.79,696.23,251.56Z" transform="translate(-114.57 -158.13)"/><path class="cls-2" d="M1204,572c-.17,3.3,2.91,2.7,4.56,3.61,9.57,5.26,14.52,15.55,12.1,25.6-2.63,10.86-11.62,18.1-22.49,18.1s-19.86-7.24-22.49-18.1c-2.42-10.05,2.53-20.34,12.1-25.6,1.65-.91,4.73-.31,4.56-3.61Z" transform="translate(-114.57 -158.13)"/><path class="cls-2" d="M1359.87,1282.91c0,3.21,0,6.42-.08,9.63-4,9.25-9.42,16.76-20.47,18a23.05,23.05,0,0,1-24.6-15.06,23.34,23.34,0,0,1,10.06-27.72c2-1.24,5.64-.54,5.85-4.28h11.66a1.64,1.64,0,0,0,1.14,2.21C1352.17,1268.36,1356.29,1275.37,1359.87,1282.91Z" transform="translate(-114.57 -158.13)"/><path class="cls-2" d="M1156.93,850.17l-9.62-.08c-9.26-4-16.76-9.42-18-20.47a23,23,0,0,1,15.06-24.6A23.34,23.34,0,0,1,1172,815.08c1.24,2,.55,5.64,4.28,5.86v11.65a1.65,1.65,0,0,0-2.21,1.15C1171.48,842.48,1164.47,846.59,1156.93,850.17Z" transform="translate(-114.57 -158.13)"/><path class="cls-2" d="M529.93,222.68c0,3.21.05,6.42.08,9.62-2.9,9.15-10.57,14-17.58,19.38H500.77c.35-2.52-1.84-2.34-3.22-3-10.13-5.14-15.57-14.89-13.81-24.75a23,23,0,0,1,20.66-19.34c10.83-1.09,19.68,4.71,24.13,15.76A16.65,16.65,0,0,0,529.93,222.68Z" transform="translate(-114.57 -158.13)"/><path class="cls-2" d="M742,1126.79l-9.62-.08c-14.9-7.32-20.25-15.91-17.71-28.37,2-9.88,9.29-14.62,17.71-18.29L742,1080c9.16,2.88,14,10.56,19.39,17.58v11.65a1.65,1.65,0,0,0-2.21,1.15C756.55,1119.1,749.54,1123.21,742,1126.79Z" transform="translate(-114.57 -158.13)"/><path class="cls-2" d="M834.06,1126.71l-9.62.09c-9.14-2.91-14-10.57-19.38-17.59v-11.65c2.52.34,2.34-1.85,3-3.22,5.14-10.14,14.89-15.58,24.74-13.82a23,23,0,0,1,19.35,20.66c1.08,10.84-4.72,19.69-15.77,24.13A18.3,18.3,0,0,0,834.06,1126.71Z" transform="translate(-114.57 -158.13)"/><path class="cls-2" d="M944.94,868c0,3.21-.05,6.42-.08,9.62-4,9.26-9.42,16.77-20.47,18.06a23.05,23.05,0,0,1-24.6-15.06,23.35,23.35,0,0,1,10.06-27.72c2-1.24,5.64-.54,5.85-4.28h11.66a1.64,1.64,0,0,0,1.14,2.21C937.24,853.43,941.36,860.44,944.94,868Z" transform="translate(-114.57 -158.13)"/><path class="cls-2" d="M1387.3,573.47l-9.62.09c-9.14-2.91-14-10.57-19.38-17.59V544.32c2.52.34,2.34-1.85,3-3.22,5.14-10.14,14.89-15.58,24.74-13.82a23,23,0,0,1,19.35,20.66c1.08,10.84-4.72,19.69-15.77,24.13A18.3,18.3,0,0,0,1387.3,573.47Z" transform="translate(-114.57 -158.13)"/><path class="cls-2" d="M1038,417.66c-3.3-.17-2.69,2.91-3.6,4.57-5.27,9.57-15.56,14.52-25.6,12.09-10.87-2.63-18.11-11.62-18.11-22.49s7.24-19.86,18.11-22.48c10-2.43,20.33,2.52,25.6,12.09.91,1.65.3,4.73,3.6,4.57Z" transform="translate(-114.57 -158.13)"/><path class="cls-2" d="M927.36,710.29c-.17,3.3,2.91,2.7,4.56,3.61,9.57,5.26,14.52,15.55,12.1,25.6-2.63,10.86-11.62,18.1-22.49,18.1s-19.86-7.24-22.49-18.1c-2.42-10,2.53-20.33,12.1-25.6,1.65-.91,4.73-.31,4.56-3.61Z" transform="translate(-114.57 -158.13)"/><path class="cls-2" d="M899.69,694.28c-3.3-.17-2.69,2.91-3.6,4.57-5.27,9.57-15.56,14.52-25.6,12.09-10.87-2.63-18.11-11.62-18.11-22.49s7.24-19.86,18.11-22.48c10-2.43,20.33,2.52,25.6,12.09.91,1.65.3,4.73,3.6,4.57Z" transform="translate(-114.57 -158.13)"/><path class="cls-2" d="M390.13,544.32c3.3.16,2.69-2.92,3.6-4.57,5.27-9.57,15.56-14.52,25.6-12.09,10.87,2.62,18.11,11.62,18.11,22.48S430.2,570,419.33,572.63c-10,2.43-20.33-2.52-25.6-12.09-.91-1.66-.3-4.74-3.6-4.57Z" transform="translate(-114.57 -158.13)"/><path class="cls-2" d="M806.55,739.3c-4,9.25-9.42,16.76-20.47,18.05a23.05,23.05,0,0,1-24.6-15.06,23.34,23.34,0,0,1,10.06-27.72c2-1.24,5.64-.54,5.85-4.28h11.66a1.65,1.65,0,0,0,1.14,2.21c8.75,2.63,12.87,9.63,16.43,17.19C806.6,732.89,806.57,736.09,806.55,739.3Z" transform="translate(-114.57 -158.13)"/><path class="cls-2" d="M1330.63,804.92c.17-3.29-2.91-2.69-4.56-3.6-9.57-5.27-14.52-15.56-12.1-25.6,2.63-10.86,11.62-18.1,22.49-18.1s19.86,7.24,22.49,18.1c2.42,10-2.53,20.33-12.1,25.6-1.65.91-4.73.31-4.56,3.6Z" transform="translate(-114.57 -158.13)"/><path class="cls-2" d="M899.69,1235.87v11.65c-3.3-.17-2.69,2.91-3.6,4.57-5.27,9.57-15.56,14.52-25.6,12.09-10.87-2.63-18.11-11.62-18.11-22.49s7.24-19.86,18.11-22.48c10-2.43,20.33,2.52,25.6,12.09C897,1233,896.39,1236,899.69,1235.87Z" transform="translate(-114.57 -158.13)"/><path class="cls-2" d="M761.38,417.66c-3.3-.17-2.69,2.91-3.6,4.57-5.27,9.57-15.56,14.52-25.6,12.09-10.87-2.63-18.11-11.62-18.11-22.49s7.24-19.86,18.11-22.48c10-2.43,20.33,2.52,25.6,12.09.91,1.65.3,4.73,3.6,4.57Z" transform="translate(-114.57 -158.13)"/><path class="cls-2" d="M880.3,803.36c9.16,2.88,14,10.56,19.39,17.58v11.65c-2.52-.35-2.34,1.85-3,3.22-5.14,10.14-14.89,15.58-24.74,13.82A23,23,0,0,1,852.56,829c-1.08-10.83,4.72-19.68,15.77-24.12a17.3,17.3,0,0,0,2.36-1.41Z" transform="translate(-114.57 -158.13)"/><path class="cls-2" d="M824.44,388.42l9.62.08c9.26,4,16.76,9.42,18.05,20.48a23,23,0,0,1-15.06,24.6,23.33,23.33,0,0,1-27.71-10.07c-1.24-2-.55-5.63-4.28-5.85V406a1.65,1.65,0,0,0,2.21-1.15C809.89,396.12,816.9,392,824.44,388.42Z" transform="translate(-114.57 -158.13)"/><path class="cls-2" d="M805.06,959.25c2.52.34,2.34-1.85,3-3.22,5.14-10.14,14.89-15.58,24.74-13.82a23,23,0,0,1,19.35,20.66c1.08,10.84-4.72,19.68-15.77,24.13a18.3,18.3,0,0,0-2.36,1.4l-9.61.08c-9.16-2.89-14-10.56-19.39-17.58Z" transform="translate(-114.57 -158.13)"/><path class="cls-2" d="M1192.32,804.92c.17-3.29-2.91-2.69-4.56-3.6-9.57-5.27-14.52-15.56-12.1-25.6,2.63-10.86,11.62-18.1,22.49-18.1s19.86,7.24,22.49,18.1c2.42,10-2.53,20.33-12.1,25.6-1.65.91-4.73.31-4.56,3.6Z" transform="translate(-114.57 -158.13)"/><path class="cls-2" d="M1083.22,1283q0,4.79,0,9.58c-7.32,14.9-15.92,20.24-28.37,17.7-9.88-2-14.63-9.29-18.29-17.71.08-3,.15-6.08.23-9.12,2.38-10,10.22-14.91,18.24-19.66l10.69-.22C1072.68,1269,1080.39,1273.75,1083.22,1283Z" transform="translate(-114.57 -158.13)"/><path class="cls-2" d="M529.7,1283.42q.1,4.56.23,9.12c-4,9.25-9.42,16.76-20.47,18a23.05,23.05,0,0,1-24.6-15.06,23.35,23.35,0,0,1,10.06-27.72c2-1.24,5.64-.54,5.85-4.28l10.69.22C519.48,1268.51,527.33,1273.42,529.7,1283.42Z" transform="translate(-114.57 -158.13)"/><path class="cls-2" d="M741.49,849.86l-9.11.23c-14.9-7.32-20.25-15.91-17.71-28.37,2-9.88,9.29-14.62,17.71-18.29l9.61-.07c9.16,2.88,14,10.56,19.39,17.58l-.21,10.68C756.41,839.64,751.5,847.5,741.49,849.86Z" transform="translate(-114.57 -158.13)"/><path class="cls-2" d="M621.81,508.42l-.23-9.12c4-9.25,9.42-16.76,20.47-18.05a23,23,0,0,1,24.6,15.06A23.34,23.34,0,0,1,656.59,524c-2,1.24-5.64.54-5.85,4.27l-10.69-.21C632,523.33,624.18,518.42,621.81,508.42Z" transform="translate(-114.57 -158.13)"/><path class="cls-2" d="M326.56,849.86l-9.11.23c-9.26-4-16.76-9.42-18.05-20.47A23,23,0,0,1,314.46,805a23.34,23.34,0,0,1,27.71,10.06c1.24,2,.55,5.64,4.28,5.86l-.21,10.68C341.48,839.64,336.57,847.5,326.56,849.86Z" transform="translate(-114.57 -158.13)"/><path class="cls-2" d="M963.26,1356.91l9.11-.23c9.26,4,16.76,9.42,18,20.47a23,23,0,0,1-15.06,24.6,23.33,23.33,0,0,1-27.71-10.07c-1.24-2-.55-5.63-4.28-5.85l.21-10.68C948.34,1367.13,953.25,1359.27,963.26,1356.91Z" transform="translate(-114.57 -158.13)"/><path class="cls-2" d="M870.69,1356.68l9.13.22c10,2.39,14.91,10.22,19.65,18.26q.12,5.33.22,10.67c-2.52-.35-2.34,1.85-3,3.22-5.14,10.14-14.89,15.58-24.74,13.82a23,23,0,0,1-19.35-20.66c-1.08-10.84,4.72-19.69,15.77-24.13A17.65,17.65,0,0,0,870.69,1356.68Z" transform="translate(-114.57 -158.13)"/><path class="cls-2" d="M594.07,665.13l9.13.22c10,2.39,14.91,10.22,19.65,18.26l.22,10.67a1.65,1.65,0,0,0-2.21,1.15c-2.62,8.74-9.63,12.86-17.17,16.43l-9.62-.08c-14.9-7.32-20.25-15.91-17.71-28.37C578.38,673.53,585.65,668.78,594.07,665.13Z" transform="translate(-114.57 -158.13)"/><path class="cls-2" d="M1358.3,1097.56c2.52.34,2.34-1.85,3-3.22,5.14-10.14,14.89-15.58,24.74-13.82a23,23,0,0,1,19.35,20.66c1.08,10.84-4.72,19.69-15.77,24.13a18.3,18.3,0,0,0-2.36,1.4l-9.13-.22c-10-2.39-14.91-10.22-19.65-18.26Z" transform="translate(-114.57 -158.13)"/><path class="cls-2" d="M326.56,573.24l-9.11.23c-9.26-4-16.76-9.42-18.05-20.47a23,23,0,0,1,15.06-24.6,23.34,23.34,0,0,1,27.71,10.06c1.24,2,.55,5.64,4.28,5.86L346.24,555C341.48,563,336.57,570.88,326.56,573.24Z" transform="translate(-114.57 -158.13)"/><path class="cls-2" d="M1313.13,1052.54c4-9.25,9.42-16.76,20.47-18a23,23,0,0,1,24.6,15.06,23.34,23.34,0,0,1-10.06,27.72c-2,1.24-5.64.54-5.85,4.27l-10.69-.21c-8-4.76-15.87-9.67-18.24-19.67Q1313.26,1057.1,1313.13,1052.54Z" transform="translate(-114.57 -158.13)"/><path class="cls-2" d="M557.44,1265l-9.13-.22c-10-2.39-14.91-10.22-19.65-18.26l-.22-10.67a1.65,1.65,0,0,0,2.21-1.15c2.62-8.74,9.63-12.86,17.17-16.44l9.62.09c14.9,7.31,20.25,15.91,17.71,28.36C573.13,1256.61,565.86,1261.36,557.44,1265Z" transform="translate(-114.57 -158.13)"/><path class="cls-2" d="M944.86,1190.85c-.08,3-.15,6.09-.23,9.13-2.38,10-10.22,14.91-18.24,19.66l-10.69.21c.35-2.52-1.84-2.34-3.22-3-10.13-5.14-15.57-14.89-13.81-24.75a23,23,0,0,1,20.66-19.34c10.83-1.09,19.68,4.71,24.13,15.76A16.65,16.65,0,0,0,944.86,1190.85Z" transform="translate(-114.57 -158.13)"/><path class="cls-2" d="M759.89,877.6c.08-3,.15-6.08.23-9.12,2.39-10,10.22-14.92,18.25-19.66l10.68-.22c-.35,2.52,1.84,2.34,3.22,3,10.13,5.14,15.58,14.89,13.82,24.75a23,23,0,0,1-20.67,19.34c-10.83,1.08-19.68-4.71-24.13-15.77A16.27,16.27,0,0,0,759.89,877.6Z" transform="translate(-114.57 -158.13)"/><path class="cls-2" d="M345,601l.23-9.12c2.39-10,10.22-14.92,18.25-19.66l10.68-.22c-.35,2.52,1.84,2.34,3.22,3,10.13,5.14,15.58,14.89,13.82,24.75a23,23,0,0,1-20.67,19.34c-10.83,1.08-19.68-4.71-24.13-15.77A16.27,16.27,0,0,0,345,601Z" transform="translate(-114.57 -158.13)"/><path class="cls-2" d="M1175.05,1061.66q-.1-4.56-.23-9.12c4-9.25,9.42-16.76,20.47-18a23,23,0,0,1,24.6,15.06,23.34,23.34,0,0,1-10.06,27.72c-2,1.24-5.64.54-5.85,4.27l-10.69-.21C1185.27,1076.57,1177.41,1071.66,1175.05,1061.66Z" transform="translate(-114.57 -158.13)"/><path class="cls-2" d="M668.32,1421.22l-.08,9.63c-4.42,10.82-11.34,18.48-24,18.25-11.34-.21-20.57-8.71-22.25-20.09-1.56-10.52,5.31-21.27,15.83-24.78a23.11,23.11,0,0,1,27.71,11.38C666.48,1417.47,666.16,1420,668.32,1421.22Z" transform="translate(-114.57 -158.13)"/><path class="cls-2" d="M1239.37,1356.59l9.62.09c10.83,4.41,18.48,11.34,18.25,24-.2,11.34-8.7,20.58-20.08,22.26-10.52,1.55-21.28-5.32-24.79-15.84a23.13,23.13,0,0,1,11.39-27.71C1235.61,1358.43,1238.13,1358.76,1239.37,1356.59Z" transform="translate(-114.57 -158.13)"/><path class="cls-2" d="M603.69,435.24l-9.62-.08c-10.83-4.41-18.48-11.34-18.25-24,.2-11.33,8.7-20.57,20.08-22.25,10.52-1.56,21.28,5.32,24.79,15.84a23.13,23.13,0,0,1-11.39,27.71C607.45,433.41,604.93,433.08,603.69,435.24Z" transform="translate(-114.57 -158.13)"/><path class="cls-2" d="M806.36,181.39a23.14,23.14,0,0,1-46.28-.15,23.14,23.14,0,0,1,46.28.15Z" transform="translate(-114.57 -158.13)"/><path class="cls-2" d="M1451.62,1380.27a23,23,0,0,1-23.22,22.87,23.14,23.14,0,0,1,.54-46.28A23,23,0,0,1,1451.62,1380.27Z" transform="translate(-114.57 -158.13)"/><path class="cls-2" d="M621.5,1338.78l.08-9.62c4.42-10.82,11.34-18.48,24-18.25,11.34.21,20.57,8.71,22.26,20.09,1.55,10.52-5.32,21.27-15.84,24.78a23.12,23.12,0,0,1-27.71-11.39C623.34,1342.54,623.67,1340,621.5,1338.78Z" transform="translate(-114.57 -158.13)"/><path class="cls-2" d="M455.76,665.13l9.62-.09c9.85,4.52,17.81,10.53,18.07,22.7.25,11.83-7.6,21.41-19.36,23.56-10.65,2-22.24-5.16-25.58-15.7a23.3,23.3,0,0,1,12.19-28.05C452.38,666.72,454.63,667.05,455.76,665.13Z" transform="translate(-114.57 -158.13)"/><path class="cls-2" d="M114.82,550.32A23,23,0,0,1,137.59,527a23.15,23.15,0,0,1,.36,46.29A23,23,0,0,1,114.82,550.32Z" transform="translate(-114.57 -158.13)"/><path class="cls-2" d="M1423.93,665.13l9.62-.09c9.85,4.52,17.81,10.53,18.07,22.7.25,11.83-7.6,21.41-19.36,23.56-10.65,2-22.24-5.16-25.58-15.7a23.3,23.3,0,0,1,12.19-28.05C1420.55,666.72,1422.8,667.05,1423.93,665.13Z" transform="translate(-114.57 -158.13)"/><path class="cls-2" d="M668.06,1241.91a23,23,0,1,1,46-.44,23.25,23.25,0,0,1-22.83,23.37A23,23,0,0,1,668.06,1241.91Z" transform="translate(-114.57 -158.13)"/><path class="cls-2" d="M206.58,591.38c4.49-9.88,10.53-17.82,22.69-18.09,11.83-.26,21.4,7.6,23.56,19.36,1.95,10.65-5.16,22.25-15.71,25.58a23.29,23.29,0,0,1-28-12.19c-.83-1.67-.5-3.92-2.43-5C206.63,597.78,206.6,594.58,206.58,591.38Z" transform="translate(-114.57 -158.13)"/><path class="cls-2" d="M1083.25,729.67c0,3.21,0,6.42-.08,9.62-4.42,10.83-11.34,18.49-24,18.26-11.34-.21-20.57-8.71-22.25-20.09-1.56-10.52,5.31-21.27,15.83-24.78a23.11,23.11,0,0,1,27.71,11.38C1081.41,725.92,1081.09,728.44,1083.25,729.67Z" transform="translate(-114.57 -158.13)"/><path class="cls-2" d="M621.5,785.54c0-3.2,0-6.41.08-9.62,4.42-10.82,11.34-18.48,24-18.25,11.34.21,20.57,8.71,22.26,20.09,1.55,10.52-5.32,21.27-15.84,24.78a23.12,23.12,0,0,1-27.71-11.39C623.34,789.3,623.67,786.78,621.5,785.54Z" transform="translate(-114.57 -158.13)"/><path class="cls-2" d="M668.24,914.23c0,3.21,0,6.42.08,9.62-4.52,9.86-10.53,17.82-22.7,18.07-11.83.26-21.4-7.59-23.56-19.35-1.95-10.66,5.16-22.25,15.71-25.59a23.29,23.29,0,0,1,28,12.19C666.64,910.85,666.31,913.1,668.24,914.23Z" transform="translate(-114.57 -158.13)"/><path class="cls-2" d="M132.9,988.47C123,984,115.09,978,114.82,965.79c-.26-11.83,7.6-21.41,19.36-23.57,10.65-2,22.24,5.17,25.58,15.71A23.3,23.3,0,0,1,147.57,986c-1.67.83-3.93.49-5.06,2.42Z" transform="translate(-114.57 -158.13)"/><path class="cls-2" d="M271.2,941.66l9.62.09c10.83,4.41,18.48,11.34,18.25,24-.2,11.34-8.7,20.58-20.08,22.26-10.52,1.55-21.28-5.32-24.79-15.84a23.13,23.13,0,0,1,11.39-27.71C267.44,943.5,270,943.83,271.2,941.66Z" transform="translate(-114.57 -158.13)"/><path class="cls-2" d="M1451.62,964.89a23,23,0,1,1-23.13-23A23,23,0,0,1,1451.62,964.89Z" transform="translate(-114.57 -158.13)"/><path class="cls-2" d="M391.62,1015.92c-4.42,10.82-11.34,18.48-24,18.25-11.34-.21-20.57-8.71-22.25-20.09-1.56-10.52,5.31-21.27,15.84-24.78a23.1,23.1,0,0,1,27.7,11.38c1,1.86.67,4.38,2.82,5.63C391.67,1009.51,391.64,1012.71,391.62,1015.92Z" transform="translate(-114.57 -158.13)"/><path class="cls-2" d="M506.75,988.22a23,23,0,1,1-23.29,22.8A23,23,0,0,1,506.75,988.22Z" transform="translate(-114.57 -158.13)"/><path class="cls-2" d="M1036.51,186.05c0-3.2,0-6.41-.08-9.62,4.52-9.85,10.53-17.81,22.7-18.07,11.83-.25,21.4,7.6,23.56,19.36,2,10.65-5.16,22.25-15.71,25.58a23.29,23.29,0,0,1-28-12.19C1038.11,189.44,1038.44,187.19,1036.51,186.05Z" transform="translate(-114.57 -158.13)"/><path class="cls-2" d="M137.59,1080.24a23.15,23.15,0,0,1,.36,46.29,23.15,23.15,0,0,1-.36-46.29Z" transform="translate(-114.57 -158.13)"/><path class="cls-2" d="M1009,296.85c-10.83-4.42-18.48-11.34-18.25-24,.2-11.34,8.7-20.57,20.09-22.25,10.51-1.56,21.27,5.32,24.78,15.84a23.13,23.13,0,0,1-11.39,27.71c-1.86,1-4.37.67-5.62,2.82Z" transform="translate(-114.57 -158.13)"/><path class="cls-2" d="M644.56,1080.23a23,23,0,1,1,23.49-22.6A23,23,0,0,1,644.56,1080.23Z" transform="translate(-114.57 -158.13)"/><path class="cls-2" d="M759.89,1430.85c0-3.21,0-6.42-.08-9.63,4.52-9.85,10.53-17.81,22.7-18.07,11.83-.25,21.4,7.6,23.56,19.36,1.95,10.66-5.16,22.25-15.71,25.58a23.29,23.29,0,0,1-28-12.19C761.49,1434.23,761.82,1432,759.89,1430.85Z" transform="translate(-114.57 -158.13)"/><path class="cls-2" d="M530,1477.08c-4.49,9.88-10.53,17.82-22.69,18.08-11.83.26-21.4-7.59-23.56-19.35-1.95-10.66,5.16-22.25,15.71-25.59a23.29,23.29,0,0,1,28,12.19c.83,1.68.5,3.93,2.43,5.06C530,1470.67,530,1473.88,530,1477.08Z" transform="translate(-114.57 -158.13)"/><path class="cls-2" d="M1221.55,1477.08c-4.49,9.88-10.53,17.82-22.69,18.08-11.83.26-21.4-7.59-23.56-19.35-2-10.66,5.16-22.25,15.71-25.58a23.27,23.27,0,0,1,28,12.18c.83,1.68.5,3.93,2.43,5.06C1221.5,1470.67,1221.53,1473.88,1221.55,1477.08Z" transform="translate(-114.57 -158.13)"/><path class="cls-2" d="M758.71,280.17a29,29,0,0,0,0-13.29c4.44,2.15,3-2.54,3.78-3.77,5-8.51,12.29-13.18,22.09-12.58s16.79,6,20.29,15.19a22.94,22.94,0,0,1-12.56,29c-11.29,4.86-23.71.19-29.82-10.76C761.81,282.72,763.14,278,758.71,280.17Z" transform="translate(-114.57 -158.13)"/><path class="cls-1" d="M530,370.6l-.07-9.61c4.38-17,22.21-22.27,34.32-15.16,8.52,5,12.74,14.14,11,24.16a22.88,22.88,0,0,1-42.42,7.24A60.85,60.85,0,0,1,530,370.6Z" transform="translate(-114.57 -158.13)"/><path class="cls-1" d="M806.55,739.3c0-3.21.05-6.41.07-9.61,3.36-10.78,10.2-17.5,21.87-18a22.44,22.44,0,0,1,23.38,18.63c2,11.47-4.22,22.32-14.91,26.06a23.18,23.18,0,0,1-28.33-11.7C807.78,743,807.24,741.09,806.55,739.3Z" transform="translate(-114.57 -158.13)"/><path class="cls-1" d="M132.9,988.47l9.61-.07c17,4.38,22.27,22.21,15.17,34.33-5,8.52-14.15,12.73-24.17,11a22.88,22.88,0,0,1-7.24-42.42A63.79,63.79,0,0,1,132.9,988.47Z" transform="translate(-114.57 -158.13)"/><path class="cls-1" d="M206.58,591.38c0,3.2,0,6.4.07,9.61-4.38,17-22.21,22.27-34.32,15.16-8.52-5-12.74-14.15-11-24.16a22.89,22.89,0,0,1,42.43-7.24A62.82,62.82,0,0,1,206.58,591.38Z" transform="translate(-114.57 -158.13)"/><path class="cls-1" d="M391.62,1015.92c0-3.21.05-6.41.07-9.61,3.36-10.78,10.2-17.5,21.87-18a22.44,22.44,0,0,1,23.38,18.63c2,11.47-4.22,22.32-14.91,26.06a23.16,23.16,0,0,1-28.32-11.7C392.85,1019.57,392.31,1017.71,391.62,1015.92Z" transform="translate(-114.57 -158.13)"/><path class="cls-1" d="M824.45,988.48l9.61-.08c17,4.39,22.27,22.22,15.17,34.33-5,8.52-14.15,12.73-24.17,11a22.88,22.88,0,0,1-7.24-42.42A61.64,61.64,0,0,1,824.45,988.48Z" transform="translate(-114.57 -158.13)"/><path class="cls-1" d="M1285.62,573.47l9.61.08c10.77,3.36,17.49,10.19,18,21.86a22.42,22.42,0,0,1-18.62,23.38c-11.47,2-22.33-4.22-26.06-14.91a23.16,23.16,0,0,1,11.69-28.32C1282,574.7,1283.82,574.16,1285.62,573.47Z" transform="translate(-114.57 -158.13)"/><path class="cls-1" d="M668.24,601l.07-9.61c3.36-10.78,10.2-17.5,21.87-18A22.44,22.44,0,0,1,713.56,592c2,11.47-4.22,22.32-14.91,26.06a23.18,23.18,0,0,1-28.33-11.7C669.47,604.64,668.93,602.78,668.24,601Z" transform="translate(-114.57 -158.13)"/><path class="cls-1" d="M1359.79,1430.85c0-3.21,0-6.41.07-9.61,3.36-10.78,10.2-17.5,21.87-18a22.44,22.44,0,0,1,23.38,18.63c2,11.47-4.22,22.32-14.91,26.06a23.18,23.18,0,0,1-28.33-11.7C1361,1434.5,1360.48,1432.64,1359.79,1430.85Z" transform="translate(-114.57 -158.13)"/><path class="cls-1" d="M742,803.36l-9.61.07c-17-4.38-22.27-22.21-15.17-34.32,5-8.52,14.15-12.73,24.17-11a22.88,22.88,0,0,1,7.24,42.42A63.73,63.73,0,0,1,742,803.36Z" transform="translate(-114.57 -158.13)"/><path class="cls-1" d="M206.65,1052.54c0,3.2-.05,6.41-.07,9.61-3.36,10.78-10.2,17.49-21.87,18a22.44,22.44,0,0,1-23.38-18.63c-2-11.47,4.22-22.33,14.92-26.06a23.17,23.17,0,0,1,28.32,11.69C205.42,1048.88,206,1050.75,206.65,1052.54Z" transform="translate(-114.57 -158.13)"/><path class="cls-1" d="M742,1080l-9.61.07c-17-4.38-22.27-22.21-15.17-34.32,5-8.52,14.15-12.73,24.17-11a22.88,22.88,0,0,1,7.24,42.42A63.73,63.73,0,0,1,742,1080Z" transform="translate(-114.57 -158.13)"/><path class="cls-1" d="M898.2,1052.54c0,3.2-.05,6.41-.07,9.61-3.36,10.78-10.2,17.49-21.87,18a22.44,22.44,0,0,1-23.38-18.63c-2-11.47,4.22-22.33,14.92-26.06a23.17,23.17,0,0,1,28.32,11.69C897,1048.88,897.51,1050.75,898.2,1052.54Z" transform="translate(-114.57 -158.13)"/><path class="cls-1" d="M880.3,803.36l-9.61.07c-17-4.38-22.27-22.21-15.17-34.32,5-8.52,14.15-12.73,24.17-11a22.88,22.88,0,0,1,7.24,42.42A63.73,63.73,0,0,1,880.3,803.36Z" transform="translate(-114.57 -158.13)"/><path class="cls-1" d="M253.31,739.3l.07-9.61c3.36-10.78,10.2-17.5,21.87-18a22.44,22.44,0,0,1,23.38,18.63c2,11.47-4.22,22.32-14.91,26.06a23.18,23.18,0,0,1-28.33-11.7C254.54,743,254,741.09,253.31,739.3Z" transform="translate(-114.57 -158.13)"/><path class="cls-1" d="M530,1477.08c0-3.2,0-6.41-.07-9.61,4.38-17,22.21-22.27,34.32-15.16,8.52,5,12.74,14.14,11,24.16a22.88,22.88,0,0,1-42.42,7.24A60.85,60.85,0,0,1,530,1477.08Z" transform="translate(-114.57 -158.13)"/><path class="cls-1" d="M898.2,1467.47c0,3.2-.05,6.41-.07,9.61-3.36,10.78-10.2,17.49-21.87,18a22.44,22.44,0,0,1-23.38-18.63c-2-11.47,4.22-22.33,14.92-26.06a23.17,23.17,0,0,1,28.32,11.69C897,1463.81,897.51,1465.68,898.2,1467.47Z" transform="translate(-114.57 -158.13)"/><path class="cls-1" d="M391.62,739.3l.07-9.61c3.36-10.78,10.2-17.5,21.87-18a22.44,22.44,0,0,1,23.38,18.63c2,11.47-4.22,22.32-14.91,26.06a23.18,23.18,0,0,1-28.33-11.7C392.85,743,392.31,741.09,391.62,739.3Z" transform="translate(-114.57 -158.13)"/><path class="cls-1" d="M1221.55,1477.08c0-3.2,0-6.41-.07-9.61,4.38-17,22.21-22.27,34.32-15.16,8.52,5,12.74,14.14,11,24.16a22.88,22.88,0,0,1-42.42,7.24A60.85,60.85,0,0,1,1221.55,1477.08Z" transform="translate(-114.57 -158.13)"/><path class="cls-1" d="M668.07,458.12a23,23,0,0,1,46-.37,23,23,0,1,1-46,.37Z" transform="translate(-114.57 -158.13)"/><path class="cls-1" d="M137.5,665.29a23,23,0,0,1,.54-46,23,23,0,1,1-.54,46Z" transform="translate(-114.57 -158.13)"/><path class="cls-1" d="M1451.61,1195.79a23,23,0,0,1-46-.4,23,23,0,1,1,46,.4Z" transform="translate(-114.57 -158.13)"/><path class="cls-1" d="M621.75,1011.18a23,23,0,1,1-22.93-22.95A22.86,22.86,0,0,1,621.75,1011.18Z" transform="translate(-114.57 -158.13)"/><path class="cls-1" d="M1221.31,1011.36a23,23,0,0,1,46-.37,23,23,0,1,1-46,.37Z" transform="translate(-114.57 -158.13)"/><path class="cls-1" d="M1359.62,1011a23,23,0,0,1,46,.39,23,23,0,1,1-46-.39Z" transform="translate(-114.57 -158.13)"/><path class="cls-1" d="M944.69,457.72a23,23,0,0,1,46,.43,23,23,0,1,1-46-.43Z" transform="translate(-114.57 -158.13)"/><path class="cls-1" d="M875.61,941.92a23,23,0,1,1,22.76-23.12A22.87,22.87,0,0,1,875.61,941.92Z" transform="translate(-114.57 -158.13)"/><path class="cls-1" d="M1382.9,941.91a23,23,0,0,1-.67-45.95,23,23,0,1,1,.67,45.95Z" transform="translate(-114.57 -158.13)"/><path class="cls-1" d="M1451.61,1057.15a23,23,0,0,1-46,.27,23,23,0,1,1,46-.27Z" transform="translate(-114.57 -158.13)"/><path class="cls-2" d="M783.48,1218.55a23.15,23.15,0,0,1-.52,46.29c-12.52-.17-23.05-10.94-22.88-23.41A23.51,23.51,0,0,1,783.48,1218.55Z" transform="translate(-114.57 -158.13)"/><path class="cls-1" d="M1009,296.85l9.61.08q13.92,3.92,17.83,17.83c0,3.2,0,6.41.07,9.61-4.75,12.33-11.76,18.05-22.4,18.26a22.7,22.7,0,0,1-21.6-14.21C987,315.27,993.51,302.82,1009,296.85Z" transform="translate(-114.57 -158.13)"/><path class="cls-1" d="M1313.13,1052.54q.12,4.56.23,9.12-4.18,14.43-18.61,18.62l-9.13-.23c-12.34-4.75-18-11.76-18.27-22.39a22.72,22.72,0,0,1,14.22-21.61C1294.71,1030.55,1307.16,1037.06,1313.13,1052.54Z" transform="translate(-114.57 -158.13)"/><path class="cls-1" d="M1378.17,1126.49l9.13.22c12.34,4.76,18,11.76,18.27,22.4a22.72,22.72,0,0,1-14.22,21.61c-13.14,5.49-25.59-1-31.56-16.49q-.12-4.56-.23-9.12Q1363.75,1130.68,1378.17,1126.49Z" transform="translate(-114.57 -158.13)"/><path class="cls-1" d="M870.69,573.47l9.11-.23q14.43,4.18,18.63,18.62c-.08,3-.15,6.08-.23,9.13-4.75,12.33-11.76,18-22.4,18.26A22.7,22.7,0,0,1,854.2,605C848.7,591.89,855.2,579.44,870.69,573.47Z" transform="translate(-114.57 -158.13)"/><path class="cls-1" d="M1018.13,527l-9.13-.23c-12.34-4.75-18-11.76-18.27-22.39A22.72,22.72,0,0,1,1005,482.81c13.14-5.5,25.59,1,31.56,16.49q.12,4.56.23,9.12Q1032.56,522.83,1018.13,527Z" transform="translate(-114.57 -158.13)"/><path class="cls-1" d="M512.43,433.67H500.77c-10.57-2.87-17.31-11.38-17.31-21.84s6.74-19,17.31-21.84h11.66c10.57,2.88,17.31,11.38,17.31,21.84S523,430.8,512.43,433.67Z" transform="translate(-114.57 -158.13)"/><path class="cls-1" d="M899.69,832.59V820.94c3.06-11.16,12.73-18.23,23.59-17.26A23.67,23.67,0,0,1,944.61,825c1,10.86-6.1,20.52-17.25,23.58H915.7Q902.61,845.71,899.69,832.59Z" transform="translate(-114.57 -158.13)"/><path class="cls-1" d="M805.06,1097.56v11.65c-2.87,10.57-11.38,17.31-21.84,17.31s-19-6.74-21.84-17.31v-11.65c2.87-10.57,11.38-17.31,21.84-17.31S802.19,1087,805.06,1097.56Z" transform="translate(-114.57 -158.13)"/><path class="cls-1" d="M805.06,959.25V970.9c-2.87,10.57-11.38,17.31-21.84,17.31s-19-6.74-21.84-17.31V959.25c2.87-10.57,11.38-17.31,21.84-17.31S802.19,948.68,805.06,959.25Z" transform="translate(-114.57 -158.13)"/><path class="cls-1" d="M915.7,1081.54l10.68-.21q14.49,2.72,17.2,17.19l-.21,10.69c-3.06,11.16-12.73,18.23-23.59,17.26a23.67,23.67,0,0,1-21.33-21.34C897.47,1094.27,904.55,1084.6,915.7,1081.54Z" transform="translate(-114.57 -158.13)"/><path class="cls-1" d="M789.05,710.29H777.39c-10.57-2.87-17.31-11.38-17.31-21.84s6.74-19,17.31-21.84h11.66c10.57,2.88,17.31,11.38,17.31,21.84S799.62,707.42,789.05,710.29Z" transform="translate(-114.57 -158.13)"/><path class="cls-1" d="M1358.3,544.32V556c-2.87,10.57-11.38,17.31-21.84,17.31s-19-6.74-21.84-17.31V544.32c2.87-10.57,11.38-17.31,21.84-17.31S1355.43,533.75,1358.3,544.32Z" transform="translate(-114.57 -158.13)"/><path class="cls-1" d="M500.77,251.68h11.66c10.57,2.88,17.31,11.38,17.31,21.84s-6.74,19-17.31,21.84H500.77c-10.57-2.87-17.31-11.38-17.31-21.84S490.2,254.56,500.77,251.68Z" transform="translate(-114.57 -158.13)"/><path class="cls-1" d="M623.07,694.28l-.22-10.67q2.71-14.49,17.2-17.21l10.69.21C661.89,669.67,669,679.34,668,690.2a23.66,23.66,0,0,1-21.33,21.34C635.8,712.51,626.13,705.44,623.07,694.28Z" transform="translate(-114.57 -158.13)"/><path class="cls-1" d="M789.05,848.6l-10.68.22q-14.49-2.72-17.2-17.2l.21-10.68c3.06-11.16,12.73-18.23,23.59-17.26A23.67,23.67,0,0,1,806.3,825C807.28,835.88,800.2,845.54,789.05,848.6Z" transform="translate(-114.57 -158.13)"/><path class="cls-1" d="M528.44,1235.87l.22,10.67q-2.71,14.49-17.2,17.21l-10.69-.22c-11.15-3.06-18.23-12.72-17.25-23.58a23.67,23.67,0,0,1,21.33-21.34C515.71,1217.64,525.38,1224.71,528.44,1235.87Z" transform="translate(-114.57 -158.13)"/><path class="cls-1" d="M1192.32,804.92H1204q13.1,2.91,16,16v11.65c-2.87,10.57-11.38,17.31-21.84,17.31s-19-6.74-21.84-17.31V820.94Q1179.22,807.83,1192.32,804.92Z" transform="translate(-114.57 -158.13)"/><path class="cls-1" d="M1065.67,1125.22H1054q-13.1-2.9-16-16l-.21-10.68c2.39-10.94,11.18-18.25,22-18.28s19.65,7.24,22.09,18.17q-.11,5.38-.19,10.79Q1078.77,1122.32,1065.67,1125.22Z" transform="translate(-114.57 -158.13)"/><path class="cls-1" d="M1330.63,804.92h11.66q13.1,2.91,16,16v11.65c-2.87,10.57-11.38,17.31-21.84,17.31s-19-6.74-21.84-17.31V820.94Q1317.53,807.83,1330.63,804.92Z" transform="translate(-114.57 -158.13)"/><path class="cls-1" d="M899.69,694.28V682.63q2.91-13.11,16-16h11.66c10.57,2.88,17.31,11.38,17.31,21.84s-6.74,19-17.31,21.84H915.7Q902.61,707.4,899.69,694.28Z" transform="translate(-114.57 -158.13)"/><path class="cls-1" d="M1342.29,1263.53h-11.66q-13.1-2.9-16-16c-.07-3.55-.14-7.11-.22-10.66q2.7-14.49,17.19-17.22l10.7.21c10.57,2.88,17.31,11.38,17.31,21.84S1352.86,1260.66,1342.29,1263.53Z" transform="translate(-114.57 -158.13)"/><path class="cls-1" d="M1204,572h-11.66q-13.1-2.9-16-16V544.32c2.87-10.57,11.38-17.31,21.84-17.31s19,6.74,21.84,17.31V556Q1217.08,569.08,1204,572Z" transform="translate(-114.57 -158.13)"/><path class="cls-1" d="M805.06,406v11.65q-2.91,13.11-16,16H777.39q-13.1-2.9-16-16V406c2.87-10.57,11.38-17.31,21.84-17.31S802.19,395.44,805.06,406Z" transform="translate(-114.57 -158.13)"/><path class="cls-1" d="M1038,417.66V406q2.91-13.11,16-16h11.66c10.57,2.88,17.31,11.38,17.31,21.84s-6.74,19-17.31,21.84H1054Q1040.92,430.78,1038,417.66Z" transform="translate(-114.57 -158.13)"/><path class="cls-1" d="M374.12,572l-10.68.22q-14.49-2.72-17.2-17.2l.21-10.68c2.87-10.57,11.38-17.31,21.84-17.31s19,6.74,21.84,17.31V556Q387.22,569.08,374.12,572Z" transform="translate(-114.57 -158.13)"/><path class="cls-1" d="M899.48,555l.21-10.68c2.87-10.57,11.38-17.31,21.84-17.31s19,6.74,21.84,17.31l.21,10.68q-2.7,14.47-17.18,17.19h-9.72Q902.19,569.48,899.48,555Z" transform="translate(-114.57 -158.13)"/><path class="cls-1" d="M1193.29,1081.33l10.69.21q13.1,2.91,16,16v11.65c-2.87,10.57-11.38,17.31-21.84,17.31s-19-6.74-21.84-17.31l-.21-10.68Q1178.8,1084,1193.29,1081.33Z" transform="translate(-114.57 -158.13)"/><path class="cls-1" d="M805.27,545.29,805.06,556q-2.91,13.11-16,16H777.39c-10.57-2.87-17.31-11.38-17.31-21.84s6.74-19,17.31-21.84l10.68-.21Q802.56,530.79,805.27,545.29Z" transform="translate(-114.57 -158.13)"/><path class="cls-1" d="M640.05,528.09l10.69.21c10.57,2.88,17.31,11.38,17.31,21.84s-6.74,19-17.31,21.84l-10.68.22q-14.49-2.72-17.2-17.2c0-3.23,0-6.47,0-9.7Q625.56,530.81,640.05,528.09Z" transform="translate(-114.57 -158.13)"/><path class="cls-1" d="M500.77,804.92l10.68-.21q14.51,2.71,17.21,17.22l-.22,10.66q-2.91,13.11-16,16l-10.67.22q-14.49-2.7-17.21-17.19l.21-10.69Q487.67,807.83,500.77,804.92Z" transform="translate(-114.57 -158.13)"/><path class="cls-1" d="M1037.79,555q0-4.86,0-9.72,2.71-14.47,17.2-17.2l10.69.21q13.1,2.91,16,16V556q-2.91,13.11-16,16l-10.67.22Q1040.51,569.5,1037.79,555Z" transform="translate(-114.57 -158.13)"/><path class="cls-1" d="M346.24,831.62l.21-10.68q2.91-13.11,16-16h11.66q13.1,2.91,16,16l.21,10.68q-2.68,14.42-17.11,17.17h-9.88Q348.92,846.06,346.24,831.62Z" transform="translate(-114.57 -158.13)"/><path class="cls-1" d="M899.69,1385.83q-.11-5.34-.22-10.67,2.71-14.49,17.2-17.21h9.71q14.49,2.7,17.2,17.2l-.21,10.68q-2.91,13.11-16,16H915.7Q902.61,1398.95,899.69,1385.83Z" transform="translate(-114.57 -158.13)"/><path class="cls-1" d="M1331.6,1081.33l10.69.21q13.1,2.91,16,16l.22,10.67q-2.71,14.49-17.2,17.21h-9.71q-14.49-2.71-17.2-17.2c0-3.23,0-6.47,0-9.7Q1317.12,1084.05,1331.6,1081.33Z" transform="translate(-114.57 -158.13)"/><path class="cls-2" d="M1314.4,1236.86c.08,3.55.15,7.11.22,10.66-1.17-.64-1.81.46-2.67.82l1.29-11.21A4.66,4.66,0,0,1,1314.4,1236.86Z" transform="translate(-114.57 -158.13)"/><path class="cls-2" d="M1055,572.2l10.67-.22c-.64,1.17.45,1.81.82,2.68l-11.22-1.3A5.6,5.6,0,0,1,1055,572.2Z" transform="translate(-114.57 -158.13)"/><path class="cls-2" d="M501.76,848.82l10.67-.22c-.64,1.17.45,1.81.82,2.68L502,850A5.6,5.6,0,0,1,501.76,848.82Z" transform="translate(-114.57 -158.13)"/><path class="cls-2" d="M528.44,832.59l.22-10.66a4.66,4.66,0,0,1,1.16.27q.64,5.61,1.3,11.21C530.25,833.05,529.61,832,528.44,832.59Z" transform="translate(-114.57 -158.13)"/><path class="cls-2" d="M622.94,1190.43l.07,10.67-1.52-.62.09-9.63A3,3,0,0,0,622.94,1190.43Z" transform="translate(-114.57 -158.13)"/><path class="cls-2" d="M898.11,232.31l.09-9.63a2.87,2.87,0,0,0,1.36-.43c0,3.56.05,7.12.07,10.68Z" transform="translate(-114.57 -158.13)"/><path class="cls-2" d="M732,295.5l10.67-.08c-.21.51-.41,1-.62,1.52l-9.63-.09A3.23,3.23,0,0,0,732,295.5Z" transform="translate(-114.57 -158.13)"/><path class="cls-2" d="M1221.48,1329.16l.09,9.63-1.52.62c0-3.56,0-7.12.08-10.67A2.89,2.89,0,0,0,1221.48,1329.16Z" transform="translate(-114.57 -158.13)"/><path class="cls-2" d="M1249,1265l-9.6.06-.64-1.48,10.7.06C1249.3,1264.11,1249.15,1264.57,1249,1265Z" transform="translate(-114.57 -158.13)"/><path class="cls-2" d="M685.51,295.42l9.71.35a.53.53,0,0,1-.08.69l-9,.48C685.91,296.44,685.71,295.93,685.51,295.42Z" transform="translate(-114.57 -158.13)"/><path class="cls-2" d="M363.72,850c-.11-.41-.23-.8-.37-1.2h9.88c-.14.4-.26.79-.37,1.2Z" transform="translate(-114.57 -158.13)"/><path class="cls-2" d="M346.32,878.07a2.47,2.47,0,0,0-1.36-.46q.1-4.58.22-9.15a2.47,2.47,0,0,1,1-.31C346.25,871.46,346.29,874.76,346.32,878.07Z" transform="translate(-114.57 -158.13)"/><path class="cls-2" d="M667.5,322.19c-1-2.24-1.08-3.72,0-5.24C668.57,318.46,668.38,320,667.5,322.19Z" transform="translate(-114.57 -158.13)"/><path class="cls-2" d="M1221.19,1292.07l-.43.16-.46,0c-.08-3.31-.17-6.61-.25-9.92l1.52.61C1221.44,1286,1221.32,1289,1221.19,1292.07Z" transform="translate(-114.57 -158.13)"/><path class="cls-2" d="M1081.87,1098.42c.69-.64,1.72-1.15,2-1.94,3.88-10.51,11.5-16.29,22.56-16.09,11.47.22,18.64,7,22.69,19.3,2.5-11,9.59-16.1,18.17-19.63l9.13.22c10,2.39,14.9,10.22,19.66,18.25l.21,10.68a1.72,1.72,0,0,0-2.25,1.2c-4.1,10.74-12,16.51-23.35,15.94-11.1-.57-18-7.31-21.61-18.54-1.06,2.48-1.68,4.4-2.64,6.13-4.48,8.06-11.42,12.56-20.62,12.49-8.85-.07-15.61-4.27-20.22-12-1.08-1.82-.41-5.2-3.94-5.21Q1081.77,1103.81,1081.87,1098.42Z" transform="translate(-114.57 -158.13)"/><path class="cls-1" d="M1290,388.68c-38.43-.15-68.9-31.15-68.65-69.84.25-37.88,31.49-68.67,69.48-68.46,37.82.21,68.85,31.45,68.82,69.3A69.16,69.16,0,0,1,1290,388.68Z" transform="translate(-114.57 -158.13)"/><path class="cls-1" d="M345.14,320.13C345,358.53,313.9,389,275.2,388.68c-37.85-.27-68.62-31.58-68.36-69.56.25-37.83,31.53-68.81,69.39-68.74A69.18,69.18,0,0,1,345.14,320.13Z" transform="translate(-114.57 -158.13)"/><path class="cls-1" d="M345.14,1333.9a69.18,69.18,0,0,1-68.69,69.25c-38.15.18-69.61-31.1-69.61-69.24a69.15,69.15,0,0,1,138.3,0Z" transform="translate(-114.57 -158.13)"/><path class="cls-1" d="M1151.81,1218.53a23,23,0,1,1,23.18-22.69A22.89,22.89,0,0,1,1151.81,1218.53Z" transform="translate(-114.57 -158.13)"/></svg>